<svg xmlns="http://www.w3.org/2000/svg" viewBox="0 0 22.52 22.51"><defs><style>.cls-1{fill:#fbfbfd;}</style></defs><g id="圖層_2" data-name="圖層 2"><g id="Your_Icons" data-name="Your Icons"><path class="cls-1" d="M22.12,19.28l-2.83,2.84a1.25,1.25,0,0,1-1.39.3,24,24,0,0,1-5.47-2.82A35.52,35.52,0,0,1,3.52,11,26.1,26.1,0,0,1,.32,5.24L.08,4.59A1.24,1.24,0,0,1,.39,3.24C.93,2.69,1.49,2.14,2,1.59c.32-.33.66-.65,1-1A1.69,1.69,0,0,1,4,0h.3a1.75,1.75,0,0,1,1,.59C6.39,1.72,7.52,2.84,8.64,4A1.25,1.25,0,0,1,9,5.32a1.23,1.23,0,0,1-.32.49l-.9.9a1.43,1.43,0,0,0-.12,2,36.56,36.56,0,0,0,6.19,6.18,1.42,1.42,0,0,0,2-.11l.9-.9a1.27,1.27,0,0,1,1.88,0l3.55,3.54A1.26,1.26,0,0,1,22.12,19.28Z"/></g></g></svg>