<svg xmlns="http://www.w3.org/2000/svg" viewBox="0 0 18.82 22.26"><defs><style>.cls-1{fill:#fbfbfd;}</style></defs><g id="圖層_2" data-name="圖層 2"><g id="Your_Icons" data-name="Your Icons"><path class="cls-1" d="M17,14.5l-.4-3.2L18.82,9,16.63,6.61,17,3.43l-3.15-.61L12.32,0,9.41,1.36,6.5,0,5,2.82l-3.16.61.4,3.18L0,9,2.19,11.3l-.4,3.2L4.17,15,1.35,19.84l2.95-.27,1.23,2.69,3.08-5.34.8-.37.8.37,3.08,5.34,1.23-2.69,2.95.27L14.65,15ZM9.41,12.84a4.28,4.28,0,1,1,4.28-4.27A4.28,4.28,0,0,1,9.41,12.84Z"/><path class="cls-1" d="M12.42,8.62a3,3,0,1,1-3-3A3,3,0,0,1,12.42,8.62Z"/></g></g></svg>