<svg xmlns="http://www.w3.org/2000/svg" xmlns:xlink="http://www.w3.org/1999/xlink" viewBox="0 0 556.3 371.59"><defs><style>.cls-1{isolation:isolate;}.cls-2,.cls-26{opacity:0.5;}.cls-14,.cls-27,.cls-3,.cls-7{fill:#00c6d6;}.cls-4,.cls-5{fill:#7195ba;}.cls-4{opacity:0.22;}.cls-5{opacity:0.1;}.cls-14,.cls-6{opacity:0.3;}.cls-54,.cls-7{opacity:0.6;}.cls-8{fill:url(#未命名漸層_68);}.cls-9{fill:url(#未命名漸層_68-2);}.cls-10{fill:url(#未命名漸層_68-3);}.cls-11,.cls-30{stroke:#00f9ff;}.cls-11,.cls-23,.cls-30,.cls-55{stroke-linecap:round;stroke-linejoin:round;}.cls-11,.cls-23{stroke-width:0.71px;}.cls-11,.cls-15,.cls-16,.cls-19,.cls-23{opacity:0.9;}.cls-11{fill:url(#未命名漸層_129);}.cls-12{fill:url(#未命名漸層_68-4);}.cls-13,.cls-27,.cls-32,.cls-33,.cls-44,.cls-47{opacity:0.8;}.cls-14,.cls-26{mix-blend-mode:overlay;}.cls-15,.cls-21,.cls-25,.cls-26,.cls-33{fill:#00f4db;}.cls-16{fill:url(#未命名漸層_39);}.cls-17{fill:url(#linear-gradient);}.cls-18{fill:url(#未命名漸層_53);}.cls-19{fill:url(#未命名漸層_61);}.cls-20{fill:url(#未命名漸層_53-2);}.cls-22{fill:url(#未命名漸層_53-3);}.cls-23,.cls-25{stroke:#8fefe1;}.cls-23{fill:url(#未命名漸層_61-2);}.cls-24,.cls-28{opacity:0.7;}.cls-25{stroke-miterlimit:10;}.cls-25,.cls-55{stroke-width:1.42px;}.cls-28{fill:url(#未命名漸層_129-2);}.cls-29{fill:#fff;opacity:0.2;mix-blend-mode:screen;}.cls-30,.cls-32,.cls-55{fill:none;}.cls-30{stroke-width:0.99px;}.cls-31{fill:#f09;}.cls-32{stroke:#00f4db;stroke-width:1.27px;}.cls-34{fill:#fbfbfd;}.cls-35{fill:#555455;}.cls-36{fill:#6b6d6e;}.cls-37,.cls-39{fill:#e5e5e5;}.cls-37,.cls-40{opacity:0.4;}.cls-38{fill:url(#未命名漸層_129-3);}.cls-40{fill:gray;}.cls-41{fill:#bdc1c5;}.cls-42{fill:url(#未命名漸層_142);}.cls-43{fill:url(#未命名漸層_142-2);}.cls-44,.cls-45{fill:#cc0083;}.cls-46{fill:#ff88e6;}.cls-47{fill:url(#未命名漸層_142-3);}.cls-48{fill:#009ca0;}.cls-49{fill:#00d1d1;}.cls-50{fill:#d4dde8;}.cls-51{fill:url(#未命名漸層_129-4);}.cls-52{fill:#009599;}.cls-53{fill:url(#未命名漸層_142-4);}.cls-55{stroke:#8eeddd;}.cls-56{opacity:0.15;mix-blend-mode:multiply;fill:url(#radial-gradient);}</style><linearGradient id="未命名漸層_68" x1="469.74" y1="40.78" x2="402.41" y2="89.45" gradientUnits="userSpaceOnUse"><stop offset="0" stop-color="#00c6d6"/><stop offset="1" stop-color="#939596"/></linearGradient><linearGradient id="未命名漸層_68-2" x1="278.74" y1="174.01" x2="317.73" y2="174.01" xlink:href="#未命名漸層_68"/><linearGradient id="未命名漸層_68-3" x1="220.04" y1="192.54" x2="182.04" y2="263.2" xlink:href="#未命名漸層_68"/><linearGradient id="未命名漸層_129" x1="174.23" y1="94.29" x2="126.9" y2="282.29" gradientUnits="userSpaceOnUse"><stop offset="0" stop-color="#00c6d6"/><stop offset="1" stop-color="#666"/></linearGradient><linearGradient id="未命名漸層_68-4" x1="390.43" y1="69.35" x2="318.43" y2="142.01" xlink:href="#未命名漸層_68"/><linearGradient id="未命名漸層_39" x1="479.02" y1="130.96" x2="392.36" y2="198.96" gradientUnits="userSpaceOnUse"><stop offset="0" stop-color="#00f4db"/><stop offset="1" stop-color="#666"/></linearGradient><linearGradient id="linear-gradient" x1="625.72" y1="408.28" x2="558.47" y2="354.03" gradientUnits="userSpaceOnUse"><stop offset="0" stop-color="#fff"/><stop offset="1" stop-color="#939596"/></linearGradient><linearGradient id="未命名漸層_53" x1="290.09" y1="180.97" x2="267.43" y2="254.97" gradientUnits="userSpaceOnUse"><stop offset="0" stop-color="#00f4db"/><stop offset="1" stop-color="#939596"/></linearGradient><linearGradient id="未命名漸層_61" x1="471.94" y1="108.82" x2="446.61" y2="221.49" gradientUnits="userSpaceOnUse"><stop offset="0" stop-color="#00f4db"/><stop offset="1" stop-color="#666"/></linearGradient><linearGradient id="未命名漸層_53-2" x1="380.59" y1="134.9" x2="366.59" y2="206.23" xlink:href="#未命名漸層_53"/><linearGradient id="未命名漸層_53-3" x1="223.47" y1="238.91" x2="203.47" y2="284.24" xlink:href="#未命名漸層_53"/><linearGradient id="未命名漸層_61-2" x1="148.73" y1="263.59" x2="147.4" y2="326.26" xlink:href="#未命名漸層_61"/><linearGradient id="未命名漸層_129-2" x1="156.75" y1="383.73" x2="-55.92" y2="316.4" xlink:href="#未命名漸層_129"/><linearGradient id="未命名漸層_129-3" x1="528.46" y1="150.72" x2="491.71" y2="182.72" xlink:href="#未命名漸層_129"/><linearGradient id="未命名漸層_142" x1="508.27" y1="179.68" x2="520.52" y2="223.18" gradientUnits="userSpaceOnUse"><stop offset="0" stop-color="#f09"/><stop offset="1" stop-color="#666"/></linearGradient><linearGradient id="未命名漸層_142-2" x1="512.82" y1="172.04" x2="478.82" y2="196.29" xlink:href="#未命名漸層_142"/><linearGradient id="未命名漸層_142-3" x1="500.78" y1="183.38" x2="477.28" y2="221.14" xlink:href="#未命名漸層_142"/><linearGradient id="未命名漸層_129-4" x1="518.32" y1="151.61" x2="573.07" y2="150.49" xlink:href="#未命名漸層_129"/><linearGradient id="未命名漸層_142-4" x1="523.22" y1="169.36" x2="531.73" y2="169.36" xlink:href="#未命名漸層_142"/><radialGradient id="radial-gradient" cx="-881.35" cy="778.65" r="14.13" gradientTransform="matrix(3.06, -0.67, 0.17, 0.66, 3075.39, -873.16)" gradientUnits="userSpaceOnUse"><stop offset="0.47"/><stop offset="0.54" stop-color="#2c2c2c"/><stop offset="0.67" stop-color="#767676"/><stop offset="0.78" stop-color="#b1b1b1"/><stop offset="0.88" stop-color="#dbdbdb"/><stop offset="0.95" stop-color="#f5f5f5"/><stop offset="1" stop-color="#fff"/></radialGradient></defs><g class="cls-1"><g id="圖層_2" data-name="圖層 2"><g id="圖層_1-2" data-name="圖層 1"><g class="cls-2"><polygon class="cls-3" points="121.4 330.91 120.94 331.03 120.94 94.13 121.4 94.02 121.4 330.91"/><polygon class="cls-3" points="164.94 319.1 164.47 319.23 164.47 83.69 164.94 83.57 164.94 319.1"/><polygon class="cls-3" points="208.46 307.29 208 307.42 208 73.24 208.46 73.13 208.46 307.29"/><polygon class="cls-3" points="251.99 295.48 251.53 295.61 251.53 62.79 251.99 62.68 251.99 295.48"/><polygon class="cls-3" points="295.52 283.67 295.06 283.8 295.06 52.34 295.52 52.23 295.52 283.67"/><polygon class="cls-3" points="339.05 271.87 338.59 271.99 338.59 41.9 339.05 41.79 339.05 271.87"/><polygon class="cls-3" points="382.57 260.06 382.11 260.18 382.11 31.45 382.57 31.34 382.57 260.06"/><polygon class="cls-3" points="426.11 248.25 425.64 248.38 425.64 21 426.11 20.89 426.11 248.25"/><polygon class="cls-3" points="469.64 236.44 469.17 236.57 469.17 10.56 469.64 10.45 469.64 236.44"/><polygon class="cls-3" points="513.16 224.63 512.7 224.76 512.7 0.11 513.16 0 513.16 224.63"/></g><polygon class="cls-4" points="0.08 338.27 0.08 329.82 462.6 204.41 462.68 212.94 0.08 338.27"/><polygon class="cls-5" points="556.09 239.36 104.84 371.48 0 338.37 462.7 212.98 556.09 239.36"/><g class="cls-6"><polygon class="cls-3" points="476.55 88.82 476.55 120.26 105.82 223.98 105.82 190.72 476.55 88.82"/></g><g class="cls-6"><polygon class="cls-3" points="476.55 153.08 476.55 184.53 105.82 291.98 105.82 258.71 476.55 153.08"/></g><g class="cls-6"><polygon class="cls-3" points="476.55 24.54 476.55 55.97 105.82 155.97 105.82 122.72 476.55 24.54"/></g><polygon class="cls-7" points="556.09 230.75 104.84 362.87 0 329.76 462.7 204.38 556.09 230.75"/><polygon class="cls-3" points="459.17 35.32 444.23 80.58 456.17 80.58 471.1 35.32 459.17 35.32"/><polygon class="cls-8" points="394.99 86.23 406.92 86.23 444.06 67.92 432.13 67.92 394.99 86.23"/><polygon class="cls-9" points="278.74 179.89 290.68 179.89 317.73 168.12 305.79 168.12 278.74 179.89"/><polygon class="cls-10" points="188.74 231.7 200.67 231.7 227.72 197.32 215.78 197.32 188.74 231.7"/><polygon class="cls-11" points="125.37 324.47 137.3 328.29 137.3 204.85 125.37 201.03 125.37 324.47"/><polygon class="cls-3" points="496.8 33.33 459.17 35.32 471.1 35.32 508.74 33.33 496.8 33.33"/><polygon class="cls-3" points="352.61 104.36 364.54 104.36 388.36 70.95 376.43 70.95 352.61 104.36"/><polygon class="cls-3" points="305.79 168.12 317.73 168.12 340.73 122.66 328.8 122.66 305.79 168.12"/><polygon class="cls-3" points="215.78 197.32 227.72 197.32 268.49 159.4 256.55 159.4 215.78 197.32"/><polygon class="cls-3" points="125.37 201.03 137.3 204.85 150.62 201.19 138.69 197.37 125.37 201.03"/><polygon class="cls-12" points="352.61 104.36 328.8 122.66 340.73 122.66 364.54 104.36 352.61 104.36"/><g class="cls-13"><polygon class="cls-3" points="471.1 35.32 508.74 33.33 508.74 219.82 137.3 328.29 137.3 204.85 150.62 201.19 178.07 231.09 200.67 231.7 227.72 197.32 268.49 159.4 290.68 179.89 317.73 168.12 340.73 122.66 364.54 104.36 388.36 70.95 406.92 86.23 444.06 67.92 456.17 80.58 471.1 35.32"/></g><polygon class="cls-14" points="374.62 90.23 364.54 104.36 340.73 122.66 317.73 168.12 290.68 179.89 268.49 159.4 229.73 195.46 302.57 280.03 490.76 225.07 374.62 90.23"/><polygon class="cls-15" points="513.37 88.66 496.42 93.26 464.33 118.87 476.26 118.87 508.36 93.26 525.31 88.66 513.37 88.66"/><polygon class="cls-16" points="424.38 166.93 436.31 170.75 469 145.73 457.06 145.73 424.38 166.93"/><polygon class="cls-15" points="373.81 147.96 385.75 147.96 412.4 110.24 400.46 110.24 373.81 147.96"/><polygon class="cls-17" points="346.88 187.62 360.19 199.45 372.13 199.45 358.82 187.62 346.88 187.62"/><polygon class="cls-18" points="267.56 203.77 258.29 238.8 243.65 233.36 219.73 240.11 231.67 243.94 247.48 239.47 256.67 244.94 268.6 244.94 279.36 204.3 322.66 206.25 334.59 206.25 279.5 203.77 267.56 203.77"/><polygon class="cls-15" points="141.94 270.95 153.87 274.77 192.01 263.96 180.07 260.13 141.94 270.95"/><polygon class="cls-19" points="464.33 118.87 457.06 145.73 469 145.73 476.26 118.87 464.33 118.87"/><polygon class="cls-20" points="360.19 199.45 372.13 199.45 385.75 147.96 373.81 147.96 360.19 199.45"/><polygon class="cls-21" points="322.66 206.25 334.59 206.25 358.82 187.62 346.88 187.62 322.66 206.25"/><polygon class="cls-22" points="194.31 281.38 206.25 285.2 231.67 243.94 219.73 240.11 194.31 281.38"/><polygon class="cls-23" points="141.94 330.2 153.87 334.03 153.87 274.77 141.94 270.95 141.94 330.2"/><g class="cls-24"><polygon class="cls-25" points="525.31 88.66 525.31 225.56 153.87 334.03 153.87 274.77 192.01 263.96 206.25 285.2 231.67 243.94 255.58 237.19 268.6 244.94 279.5 203.77 334.59 206.25 358.82 187.62 372.13 199.45 385.75 147.96 412.4 110.24 429.04 140.86 436.31 170.75 469 145.73 476.26 118.87 508.36 93.26 525.31 88.66"/></g><polygon class="cls-26" points="451.56 159.08 436.31 170.75 429.04 140.86 417.37 119.4 411.09 112.1 385.75 147.96 372.13 199.45 358.82 187.62 334.59 206.25 279.5 203.77 273.63 225.95 323.94 284.37 512.13 229.41 451.56 159.08"/><polygon class="cls-27" points="104.75 371.5 104.53 362.79 556.29 230.75 556.29 239.25 104.75 371.5"/><polygon class="cls-28" points="0.08 329.82 104.53 362.88 104.75 371.59 0.08 338.27 0.08 329.82"/><polygon class="cls-29" points="245.82 102.96 245.82 73.53 126.3 105.31 126.3 148.22 234.27 119.5 245.82 102.96"/><polyline class="cls-30" points="137.3 205.52 150.62 201.86 178.07 231.76 200.67 232.37 227.72 198 268.49 160.07 290.68 180.56 317.73 168.79 340.73 123.33 364.54 105.04 388.36 71.62 406.92 86.9 444.06 68.59 456.17 81.25 471.1 35.99 508.74 34.01"/><path class="cls-31" d="M126.49,182.71l-.37-14.61c0-.27.09-.38.31-.32l4.44,1.25a3.78,3.78,0,0,1,2.18,1.57,5.44,5.44,0,0,1,.83,2.93l0,1.17c0,1.39-.45,2.14-1.47,2.26a2.7,2.7,0,0,1,1.23,1.15,4.08,4.08,0,0,1,.53,2l0,1.53a3.36,3.36,0,0,1-.7,2.5,2,2,0,0,1-2.11.36l-4.61-1.3C126.6,183.15,126.5,183,126.49,182.71Zm1.81-7.88,2.43.69q1.43.4,1.38-1.35l0-1.1a2,2,0,0,0-1.44-2.12l-2.47-.7c-.14,0-.2,0-.2.18l.11,4.11A.26.26,0,0,0,128.3,174.83Zm.17,6.87,2.63.74c.93.26,1.39-.19,1.36-1.34l0-1.48a2,2,0,0,0-1.53-2.15l-2.54-.72c-.14,0-.21,0-.2.19l.11,4.46A.28.28,0,0,0,128.47,181.7Z"/><path class="cls-31" d="M138.34,186.45l-1.18-.33a.47.47,0,0,1-.33-.5L136.46,171c0-.27.1-.38.31-.32l4.38,1.24a3.71,3.71,0,0,1,2.17,1.6,5.49,5.49,0,0,1,.85,3l.05,2c.05,1.84-.52,2.83-1.69,3v.09l2.22,6.2c.15.36.07.5-.23.41l-1.16-.32a.82.82,0,0,1-.59-.58l-2.14-6.08-1.9-.53c-.15,0-.22,0-.22.18l.14,5.27C138.65,186.41,138.55,186.51,138.34,186.45Zm.33-7.7,2.38.67c.92.26,1.37-.19,1.34-1.36l0-2a2,2,0,0,0-1.44-2.17l-2.38-.67c-.13,0-.2,0-.19.18l.12,5.07A.28.28,0,0,0,138.67,178.75Z"/><path class="cls-31" d="M147.65,189.07l-1.35-.38c-.17,0-.24-.2-.2-.46L149,174.54c.06-.25.21-.35.44-.28l1.88.53a.64.64,0,0,1,.46.53l3.63,15.53c0,.29,0,.4-.2.35l-1.33-.37a.46.46,0,0,1-.23-.15.93.93,0,0,1-.12-.36l-.79-3.32-4.12-1.16-.63,2.92C147.93,189,147.83,189.12,147.65,189.07Zm2.74-12.25L148.94,184l3.39.95-1.86-8.14Z"/><path class="cls-31" d="M158.74,192.2l-1.16-.33a.47.47,0,0,1-.33-.5l-.37-14.61c0-.27.1-.38.31-.32l1.05.3a.59.59,0,0,1,.42.38l4.8,11.71.07,0-.26-10.29c0-.27.1-.38.31-.32l1.16.33a.47.47,0,0,1,.33.5l.37,14.61c0,.27-.1.38-.31.32l-1-.29a.83.83,0,0,1-.5-.52l-4.75-11.58-.08,0,.26,10.29C159.06,192.15,159,192.26,158.74,192.2Z"/><path class="cls-31" d="M168.18,194.45l-.37-14.61c0-.27.09-.38.3-.32l4.61,1.3a3.75,3.75,0,0,1,2.17,1.57,5.42,5.42,0,0,1,.85,3l.2,8a3.36,3.36,0,0,1-.71,2.51,2,2,0,0,1-2.12.38L168.5,195A.46.46,0,0,1,168.18,194.45Zm2-1.06,2.64.74c.9.25,1.33-.21,1.3-1.39l-.19-7.8a2,2,0,0,0-1.4-2.16l-2.64-.74c-.14,0-.2,0-.2.18l.27,10.84A.32.32,0,0,0,170.16,193.39Z"/><path class="cls-31" d="M180.11,183.3l.37,14.61c0,.28-.09.38-.3.32L179,197.9c-.22-.06-.32-.22-.33-.5l-.37-14.61c0-.27.09-.38.31-.32l1.18.34A.45.45,0,0,1,180.11,183.3Z"/><path class="cls-31" d="M184.81,199.54l-1.17-.33a.47.47,0,0,1-.33-.5l-.37-14.61c0-.27.1-.38.31-.32l1.05.3a.59.59,0,0,1,.42.38l4.8,11.71.07,0-.26-10.29c0-.27.1-.38.31-.32l1.16.33a.45.45,0,0,1,.33.5L191.5,201c0,.27-.09.37-.31.31l-1-.28a.84.84,0,0,1-.49-.52L184.93,189l-.08,0,.26,10.3C185.12,199.49,185,199.6,184.81,199.54Z"/><path class="cls-31" d="M199,203.52l-2-.56a3.75,3.75,0,0,1-2.17-1.59,5.56,5.56,0,0,1-.82-3l-.21-8a3.44,3.44,0,0,1,.69-2.53,2,2,0,0,1,2.12-.37l2,.57a3.73,3.73,0,0,1,2.17,1.57,5.55,5.55,0,0,1,.83,3l0,.87c0,.29-.1.4-.31.34l-1.18-.33a.49.49,0,0,1-.33-.52l0-.77a2,2,0,0,0-1.39-2.16l-1.48-.41c-.9-.26-1.34.21-1.31,1.39l.2,7.8a2,2,0,0,0,1.4,2.15l1.48.42c.89.25,1.33-.21,1.3-1.39l-.06-2.16a.28.28,0,0,0-.21-.3l-1.51-.43a.45.45,0,0,1-.33-.5l0-1.22c0-.27.1-.38.31-.32l3.15.89a.57.57,0,0,1,.41.61l.1,4a3.38,3.38,0,0,1-.7,2.52A2,2,0,0,1,199,203.52Z"/><path class="cls-31" d="M262.64,129.29l1.18.34a.45.45,0,0,1,.35.48l.28,11.32a3.38,3.38,0,0,1-.7,2.52,2,2,0,0,1-2.12.38l-2.08-.59a3.71,3.71,0,0,1-2.16-1.58,5.52,5.52,0,0,1-.84-3l-.29-11.3c0-.27.1-.38.31-.32l1.18.34a.47.47,0,0,1,.33.5l.28,11.2a2,2,0,0,0,1.4,2.15l1.53.44c.92.25,1.36-.21,1.33-1.39l-.29-11.21C262.33,129.34,262.43,129.23,262.64,129.29Z"/><path class="cls-31" d="M268.7,131.41l.37,14.61c0,.27-.09.38-.3.32l-1.18-.34a.44.44,0,0,1-.33-.49l-.37-14.62c0-.27.09-.37.3-.31l1.18.33A.45.45,0,0,1,268.7,131.41Z"/><path class="cls-31" d="M272.68,147.44l-1.07-.3a.36.36,0,0,1-.27-.51c.25-.82.89-3,1.91-6.65s1.67-5.86,1.94-6.72c.09-.26.23-.37.42-.31l1.08.3c.24.07.33.24.26.53l-3.85,13.35C273,147.39,272.89,147.5,272.68,147.44Z"/><path class="cls-31" d="M285.39,135.7l1.18.33a.45.45,0,0,1,.34.48l.29,11.32a3.38,3.38,0,0,1-.71,2.52,2,2,0,0,1-2.12.38l-2.08-.59a3.7,3.7,0,0,1-2.16-1.58,5.48,5.48,0,0,1-.84-2.95l-.28-11.3c0-.27.09-.38.31-.32l1.18.33a.47.47,0,0,1,.33.5l.28,11.2c0,1.19.49,1.91,1.39,2.16l1.54.43c.91.26,1.35-.2,1.32-1.39l-.28-11.2C285.07,135.75,285.17,135.64,285.39,135.7Z"/><path class="cls-31" d="M290.69,152.51l-1.39-.39a.36.36,0,0,1-.22-.18.41.41,0,0,1,0-.31l2.9-6.69-3.13-7.84a.32.32,0,0,1,0-.3c0-.08.11-.1.21-.07l1.33.37a.82.82,0,0,1,.54.56l2.29,6.17.08,0,2-5a.37.37,0,0,1,.48-.27l1.38.39a.33.33,0,0,1,.22.21.42.42,0,0,1,0,.31l-2.82,6.14,3.28,8.4a.5.5,0,0,1,0,.33c0,.08-.11.1-.22.07l-1.41-.39a.7.7,0,0,1-.44-.51l-2.45-6.5-.08,0-2.15,5.21C291,152.48,290.9,152.57,290.69,152.51Z"/><path class="cls-31" d="M377.56,52.58,377.19,38c0-.27.1-.38.31-.32l4.61,1.3a3.76,3.76,0,0,1,2.17,1.58,5.38,5.38,0,0,1,.85,3l.2,8a3.38,3.38,0,0,1-.71,2.52,2,2,0,0,1-2.12.38l-4.61-1.3A.47.47,0,0,1,377.56,52.58Zm2-1.06,2.64.75c.9.25,1.33-.22,1.3-1.4l-.19-7.8a2,2,0,0,0-1.4-2.15l-2.64-.75c-.14,0-.2,0-.2.19l.27,10.84A.3.3,0,0,0,379.55,51.52Z"/><path class="cls-31" d="M394.29,57.7l-6-1.69a.47.47,0,0,1-.33-.5l-.37-14.61c0-.27.1-.38.31-.32l6,1.69c.2.06.3.22.31.49l0,1.23c0,.27-.09.38-.29.32l-4.27-1.2c-.15,0-.23,0-.22.17l.1,4.06a.28.28,0,0,0,.23.3l3.62,1a.48.48,0,0,1,.35.5l0,1.23c0,.27-.11.37-.33.31l-3.62-1c-.15,0-.22,0-.22.18l.11,4.27a.33.33,0,0,0,.24.33l4.27,1.2c.2.05.3.22.31.49l0,1.22C394.58,57.65,394.49,57.75,394.29,57.7Z"/><path class="cls-31" d="M401.35,59.69l-1.85-.53a.59.59,0,0,1-.41-.52l-3.48-15.43c-.08-.33,0-.46.27-.38l1.33.37a.56.56,0,0,1,.37.51l2.73,13.21.08,0,2.08-11.85q.06-.39.36-.3l1.31.37a.41.41,0,0,1,.32.54L401.7,59.38C401.65,59.64,401.54,59.74,401.35,59.69Z"/><path class="cls-31" d="M412.89,62.94l-6-1.69a.45.45,0,0,1-.33-.5l-.37-14.61c0-.27.09-.38.31-.32l6,1.69c.2.05.31.22.31.49l0,1.22c0,.28-.09.38-.29.33l-4.27-1.21c-.15,0-.22,0-.22.18l.11,4.06a.28.28,0,0,0,.23.3l3.61,1a.47.47,0,0,1,.35.5l0,1.22c0,.28-.1.38-.33.32l-3.61-1c-.15,0-.23,0-.22.18l.11,4.27a.3.3,0,0,0,.23.32l4.27,1.21c.2.05.3.22.31.49l0,1.22C413.19,62.88,413.09,63,412.89,62.94Z"/><path class="cls-31" d="M422,65.49l-6.07-1.71a.47.47,0,0,1-.33-.5l-.37-14.61c0-.27.1-.38.31-.32l1.18.33a.47.47,0,0,1,.33.5l.32,12.69a.29.29,0,0,0,.23.31l4.35,1.22a.49.49,0,0,1,.33.52l0,1.25C422.28,65.44,422.17,65.55,422,65.49Z"/><path class="cls-31" d="M428.89,67.44l-2.17-.61a3.72,3.72,0,0,1-2.17-1.59,5.57,5.57,0,0,1-.83-2.95l-.2-8a3.43,3.43,0,0,1,.69-2.53,2,2,0,0,1,2.12-.37l2.17.61a3.76,3.76,0,0,1,2.18,1.58,5.47,5.47,0,0,1,.84,3l.2,8a3.38,3.38,0,0,1-.7,2.52A2,2,0,0,1,428.89,67.44Zm-2-2.58,1.63.46c.91.26,1.35-.2,1.32-1.39l-.2-7.8A2,2,0,0,0,428.27,54l-1.63-.46c-.9-.25-1.33.22-1.3,1.4l.2,7.8A2,2,0,0,0,426.93,64.86Z"/><path class="cls-31" d="M435.84,69.4l-1.18-.33a.47.47,0,0,1-.33-.5L434,54c0-.28.1-.38.31-.32l4.46,1.25a3.78,3.78,0,0,1,2.16,1.58,5.46,5.46,0,0,1,.84,3l.06,2.5a3.37,3.37,0,0,1-.7,2.51,2,2,0,0,1-2.11.39l-2.73-.77c-.15,0-.23,0-.22.17l.12,4.85C436.16,69.35,436.06,69.46,435.84,69.4Zm.34-7.41,2.49.7c.89.25,1.31-.22,1.28-1.4L439.9,59a2,2,0,0,0-1.38-2.15l-2.49-.7c-.14,0-.21,0-.2.18l.13,5.35A.3.3,0,0,0,436.18,62Z"/><path class="cls-31" d="M452.09,58.66l2.1.59a.46.46,0,0,1,.33.49l.37,14.62c0,.27-.1.37-.31.31l-1.16-.32c-.22-.06-.32-.23-.33-.5l-.31-12.12-.07,0-2.22,8.1c-.06.23-.2.32-.4.27l-1.2-.34a.65.65,0,0,1-.4-.5l-2.72-9.5-.07,0L446,71.86a.5.5,0,0,1-.06.3s-.13,0-.25,0l-1.14-.32a.45.45,0,0,1-.33-.5l-.37-14.61c0-.27.09-.38.31-.32l2.09.59a.5.5,0,0,1,.31.35l2.8,10,.09,0,2.36-8.53Q451.85,58.59,452.09,58.66Z"/><path class="cls-31" d="M464,77.31l-6-1.69a.46.46,0,0,1-.33-.49l-.37-14.62c0-.27.1-.37.31-.31l6,1.68c.2.06.3.22.31.5l0,1.22c0,.27-.09.38-.29.32l-4.27-1.2c-.15,0-.23,0-.22.18l.1,4.05a.3.3,0,0,0,.23.31l3.62,1a.47.47,0,0,1,.34.51l0,1.22c0,.27-.11.38-.33.31l-3.62-1c-.15,0-.22,0-.22.18l.11,4.27a.31.31,0,0,0,.23.33l4.28,1.2c.2.06.3.22.31.49l0,1.23C464.24,77.26,464.15,77.37,464,77.31Z"/><path class="cls-31" d="M468.11,78.48l-1.17-.32a.46.46,0,0,1-.32-.5l-.37-14.61c0-.28.09-.38.3-.32l1.05.29a.64.64,0,0,1,.42.38l4.8,11.72.08,0-.26-10.29c0-.28.09-.38.3-.32l1.16.32a.45.45,0,0,1,.33.5L474.8,80c0,.28-.09.38-.3.32l-1-.28a.84.84,0,0,1-.49-.52l-4.76-11.59-.08,0,.26,10.29C468.42,78.44,468.32,78.54,468.11,78.48Z"/><path class="cls-31" d="M480.85,82.07l-1.18-.33a.48.48,0,0,1-.35-.5L479,68.5a.29.29,0,0,0-.2-.3l-2.36-.66a.49.49,0,0,1-.35-.5l0-1.23c0-.27.11-.38.33-.31l6.95,2a.47.47,0,0,1,.35.5l0,1.22c0,.27-.1.38-.33.32L481,68.83c-.14,0-.2,0-.2.18l.32,12.74C481.16,82,481.06,82.13,480.85,82.07Z"/><path class="cls-31" d="M461,19.45l-.37-14.61c0-.27.09-.38.31-.32l4.61,1.3a3.82,3.82,0,0,1,2.17,1.57,5.53,5.53,0,0,1,.84,3l.2,8a3.38,3.38,0,0,1-.7,2.52,2,2,0,0,1-2.12.38L461.36,20C461.14,19.89,461,19.72,461,19.45Zm2-1.06,2.64.74c.9.26,1.34-.21,1.31-1.39l-.2-7.8a2,2,0,0,0-1.4-2.15L462.72,7c-.13,0-.2,0-.2.18l.28,10.85A.29.29,0,0,0,463,18.39Z"/><path class="cls-31" d="M477.75,24.56l-6-1.68a.45.45,0,0,1-.33-.5l-.37-14.61c0-.27.09-.38.3-.32l6,1.69c.2,0,.3.22.31.49l0,1.22c0,.28-.09.38-.29.33L473.14,10c-.15,0-.22,0-.22.18l.1,4.06a.29.29,0,0,0,.24.3l3.61,1a.47.47,0,0,1,.35.5l0,1.22c0,.28-.1.38-.33.32l-3.61-1c-.15,0-.23,0-.22.17L473.2,21a.3.3,0,0,0,.23.32l4.27,1.21c.2,0,.3.22.31.49l0,1.22C478.05,24.51,478,24.62,477.75,24.56Z"/><path class="cls-31" d="M486.82,27.12l-6.07-1.71a.47.47,0,0,1-.33-.5l-.37-14.61c0-.27.09-.38.31-.32l1.18.33a.47.47,0,0,1,.33.5l.32,12.69a.3.3,0,0,0,.23.31L486.77,25c.21.06.32.23.33.52l0,1.25C487.13,27.07,487,27.18,486.82,27.12Z"/><path class="cls-31" d="M490.39,13.21l.37,14.61c0,.28-.09.38-.31.32l-1.18-.33a.47.47,0,0,1-.33-.5l-.37-14.61c0-.27.1-.38.31-.32l1.18.33A.46.46,0,0,1,490.39,13.21Z"/><path class="cls-31" d="M498,30.26l-1.86-.52a.58.58,0,0,1-.4-.52l-3.48-15.44c-.08-.32,0-.45.27-.37l1.33.37a.55.55,0,0,1,.36.51L497,27.49l.07,0,2.08-11.84c0-.26.17-.36.37-.31l1.31.37a.41.41,0,0,1,.31.54L498.33,30C498.29,30.21,498.17,30.32,498,30.26Z"/><path class="cls-31" d="M509.53,33.51l-6-1.69a.46.46,0,0,1-.33-.49l-.37-14.61c0-.28.1-.38.31-.32l6,1.68c.2.06.3.23.31.5l0,1.22c0,.27-.09.38-.29.32l-4.27-1.2c-.15,0-.23,0-.22.18l.1,4a.3.3,0,0,0,.23.31l3.62,1A.48.48,0,0,1,509,25l0,1.22c0,.27-.11.38-.33.31l-3.62-1c-.15-.05-.22,0-.22.17l.11,4.27a.31.31,0,0,0,.23.33l4.28,1.2c.2.06.3.22.31.5l0,1.22C509.82,33.46,509.73,33.57,509.53,33.51Z"/><path class="cls-31" d="M513.71,34.69l-1.18-.33a.45.45,0,0,1-.33-.5l-.37-14.61c0-.27.09-.38.3-.32l4.39,1.23a3.78,3.78,0,0,1,2.17,1.6,5.58,5.58,0,0,1,.85,3l.05,2c0,1.83-.52,2.83-1.69,3v.1l2.22,6.2c.14.36.07.49-.23.41l-1.16-.33a.79.79,0,0,1-.59-.57L516,29.45l-1.89-.53c-.15-.05-.22,0-.22.17l.13,5.28C514,34.64,513.92,34.75,513.71,34.69ZM514,27l2.38.67c.92.26,1.37-.19,1.34-1.36l0-2a2,2,0,0,0-1.43-2.16l-2.38-.67c-.14,0-.2,0-.2.18l.13,5.06A.28.28,0,0,0,514,27Z"/><path class="cls-31" d="M526.35,38.25l-1.2-.34a.47.47,0,0,1-.33-.5l-.13-5.3L521,21.84a.37.37,0,0,1,0-.31.17.17,0,0,1,.21-.06l1.49.42c.17,0,.3.22.39.51l2.47,7.25.11,0,2.1-6c.07-.25.19-.35.37-.3l1.5.42a.32.32,0,0,1,.21.18.34.34,0,0,1,0,.31l-3.27,8.3.14,5.3C526.67,38.2,526.56,38.31,526.35,38.25Z"/><polygon class="cls-32" points="255.11 104.97 255.11 75.53 135.59 107.32 135.59 150.22 243.56 121.51 255.11 104.97"/><polygon class="cls-33" points="145.34 148.23 135.76 150.78 135.76 107.88 145.34 105.33 145.34 148.23"/><path class="cls-34" d="M162.88,130.91l-.74.19q-.3.09-.3-.3V127l-8,2.13c-.27.07-.41,0-.41-.34v-.56a2.53,2.53,0,0,1,.19-.78l7.22-15.88a1,1,0,0,1,.66-.65l1.29-.35c.26-.07.38.06.38.37v14.28l2.07-.55q.3-.08.3.24v.76a.4.4,0,0,1-.3.43l-2.07.55v3.76A.42.42,0,0,1,162.88,130.91Zm-1-5.29V112.13l-6.94,15.34Z"/><path class="cls-34" d="M176.06,122.91v-1.13a.39.39,0,0,1,.31-.43l.8-.22q.3-.07.3.27v1q0,3.16,2.67,2.45l2.86-.76q2.67-.7,2.67-3.9V118.9a2,2,0,0,0-1-1.91,4.84,4.84,0,0,0-2.4-.5l-2.82,0a3.86,3.86,0,0,1-2.4-.75,2.85,2.85,0,0,1-1-2.45v-1.74a6,6,0,0,1,1.05-3.56,4.91,4.91,0,0,1,2.84-2l3.19-.85a2.94,2.94,0,0,1,2.83.45,3.83,3.83,0,0,1,1.05,3v.88a.39.39,0,0,1-.3.43l-.8.21c-.2.06-.3,0-.3-.26v-.79c0-2.11-.9-2.93-2.67-2.45l-2.84.75q-2.64.7-2.64,3.93v1.58c0,1.45,1.13,2.13,3.38,2,.94,0,1.88,0,2.83,0a3.8,3.8,0,0,1,2.4.84,3.24,3.24,0,0,1,1,2.65V120a6.07,6.07,0,0,1-1,3.57,4.89,4.89,0,0,1-2.84,2l-3.24.87a2.93,2.93,0,0,1-2.84-.45A3.83,3.83,0,0,1,176.06,122.91Z"/><path class="cls-34" d="M195.5,122.23l-.8.21c-.2.06-.31,0-.31-.3V103.92q0-.28-.27-.21l-4,1.06c-.22.06-.33,0-.33-.26v-.73a.41.41,0,0,1,.33-.44l9.91-2.63c.22-.06.33,0,.33.26v.73a.4.4,0,0,1-.33.43l-4,1.06a.34.34,0,0,0-.28.36v18.23Q195.77,122.16,195.5,122.23Z"/><path class="cls-34" d="M212,117.85l-8.5,2.26c-.19,0-.28-.06-.28-.31V100.25c0-.26.09-.41.28-.46l8.5-2.26c.22-.06.33,0,.33.26v.73A.4.4,0,0,1,212,99l-7.13,1.9a.34.34,0,0,0-.27.36v7.26q0,.28.27.21l6.36-1.69q.3-.08.3.27V108a.38.38,0,0,1-.3.42l-6.36,1.7a.32.32,0,0,0-.27.35v7.65q0,.28.27.21l7.13-1.9c.22,0,.33,0,.33.26v.73A.41.41,0,0,1,212,117.85Z"/><path class="cls-34" d="M217.51,116.37l-.79.22c-.19,0-.28-.06-.28-.31V96.72c0-.25.09-.4.28-.45l6.33-1.68a2.89,2.89,0,0,1,2.83.45,3.79,3.79,0,0,1,1.05,3v3.7a6,6,0,0,1-1.05,3.56,4.92,4.92,0,0,1-2.83,2l-5,1.32a.31.31,0,0,0-.27.32v7C217.82,116.17,217.72,116.32,217.51,116.37Zm.58-9.25,4.85-1.29a3.18,3.18,0,0,0,1.92-1.32,4.29,4.29,0,0,0,.66-2.46V98.48a2.9,2.9,0,0,0-.66-2.15,1.92,1.92,0,0,0-1.92-.29l-4.85,1.29a.34.34,0,0,0-.27.36v9.25Q217.82,107.2,218.09,107.12Z"/><path class="cls-34" d="M230.75,108.37v-1.14a.4.4,0,0,1,.31-.43l.79-.21c.21,0,.31,0,.31.27v1q0,3.15,2.67,2.45l2.86-.76q2.67-.72,2.67-3.9v-1.33a2,2,0,0,0-1-1.92,4.84,4.84,0,0,0-2.4-.5c-.93,0-1.87,0-2.82,0a4,4,0,0,1-2.41-.74,2.89,2.89,0,0,1-1-2.46V97a6,6,0,0,1,1.05-3.57,4.9,4.9,0,0,1,2.83-1.95l3.2-.85a2.92,2.92,0,0,1,2.83.44,3.83,3.83,0,0,1,1.05,3V95a.38.38,0,0,1-.31.42l-.79.22c-.21,0-.31,0-.31-.27v-.79c0-2.11-.89-2.92-2.67-2.45l-2.83.75q-2.64.7-2.64,3.93v1.58c0,1.45,1.12,2.13,3.38,2q1.41-.06,2.82,0a3.87,3.87,0,0,1,2.41.85,3.22,3.22,0,0,1,1,2.64v1.55a6,6,0,0,1-1,3.56,4.94,4.94,0,0,1-2.84,2l-3.25.86a2.89,2.89,0,0,1-2.83-.45A3.79,3.79,0,0,1,230.75,108.37Z"/><path class="cls-34" d="M65.53,152.14l0-.56a.84.84,0,0,1,.26-.59l2.6-2.45a.84.84,0,0,1,.43-.28l.52-.14c.15,0,.22,0,.21.26L69,164.15c0,.21-.08.33-.23.36l-.58.15c-.14,0-.2,0-.19-.25l.55-14.71-2.66,2.51C65.64,152.46,65.52,152.43,65.53,152.14Z"/><path class="cls-34" d="M76.85,162.47l-2,.51a1.93,1.93,0,0,1-2-.45,3.29,3.29,0,0,1-.67-2.46l.35-9.15a5.27,5.27,0,0,1,.86-2.84,3.6,3.6,0,0,1,2.11-1.49l2-.51a1.93,1.93,0,0,1,2,.46,3.3,3.3,0,0,1,.65,2.46l-.34,9.15A5.35,5.35,0,0,1,79,161,3.53,3.53,0,0,1,76.85,162.47ZM75,161.81l1.85-.46a2.3,2.3,0,0,0,1.43-1,3.8,3.8,0,0,0,.56-2l.34-9a2.55,2.55,0,0,0-.41-1.75,1.31,1.31,0,0,0-1.39-.3l-1.85.47a2.34,2.34,0,0,0-1.43,1,3.94,3.94,0,0,0-.55,2l-.34,9a2.56,2.56,0,0,0,.41,1.76A1.28,1.28,0,0,0,75,161.81Z"/><path class="cls-34" d="M87.18,159.87l-2,.51a1.93,1.93,0,0,1-2-.45,3.3,3.3,0,0,1-.67-2.46l.35-9.15a5.24,5.24,0,0,1,.86-2.84A3.6,3.6,0,0,1,85.79,144l2-.51a1.93,1.93,0,0,1,2,.46,3.3,3.3,0,0,1,.65,2.46l-.34,9.15a5.35,5.35,0,0,1-.85,2.84A3.53,3.53,0,0,1,87.18,159.87Zm-1.89-.66,1.85-.46a2.3,2.3,0,0,0,1.43-1,3.8,3.8,0,0,0,.56-2l.34-9.05a2.53,2.53,0,0,0-.41-1.75,1.31,1.31,0,0,0-1.39-.3l-1.85.47a2.34,2.34,0,0,0-1.43,1,3.94,3.94,0,0,0-.55,2l-.34,9a2.58,2.58,0,0,0,.41,1.76A1.28,1.28,0,0,0,85.29,159.21Z"/><path class="cls-34" d="M94,140.24l.3-.07c.89-.23,1.31.24,1.27,1.4l0,.89c0,1.18-.51,1.88-1.4,2.1l-.29.08c-.9.22-1.33-.25-1.28-1.43l0-.89C92.59,141.16,93.06,140.46,94,140.24Zm.23.49-.21.05a1.08,1.08,0,0,0-.71.45,2.18,2.18,0,0,0-.23,1l0,.85a1.45,1.45,0,0,0,.16.9c.12.16.35.19.69.11l.21-.05a1.1,1.1,0,0,0,.7-.46,2,2,0,0,0,.23-1l0-.85a1.43,1.43,0,0,0-.15-.89C94.74,140.68,94.52,140.64,94.18,140.73Zm.17,8.93-.22.06c-.09,0-.11-.05-.06-.22s.63-1.82,1.72-4.95,1.68-4.78,1.74-5,.12-.22.19-.24l.23-.06q.17,0,.06.21l-3.46,9.92C94.5,149.56,94.43,149.64,94.35,149.66ZM98,144.38l.29-.07a.92.92,0,0,1,1,.18,1.72,1.72,0,0,1,.27,1.24l0,.89c0,1.17-.51,1.86-1.4,2.09l-.29.07q-1.35.34-1.29-1.41l0-.89Q96.66,144.73,98,144.38Zm.24.49-.21,0a1.1,1.1,0,0,0-.72.46,1.94,1.94,0,0,0-.23,1l0,.83a1.36,1.36,0,0,0,.16.9c.13.16.36.2.69.11l.21-.05a1.1,1.1,0,0,0,.71-.46,2.07,2.07,0,0,0,.23-1l0-.83a1.46,1.46,0,0,0-.15-.91C98.81,144.82,98.58,144.78,98.25,144.87Z"/><path class="cls-34" d="M77.49,198.07l-2,.51a2,2,0,0,1-2-.39,3.08,3.08,0,0,1-.73-2.3v-1.61A3.85,3.85,0,0,1,74.15,191c-.94-.24-1.41-1.09-1.41-2.56v-1.51a4.63,4.63,0,0,1,.73-2.67,3.35,3.35,0,0,1,2-1.4l2-.51a2,2,0,0,1,2,.4,3.12,3.12,0,0,1,.72,2.3v1.51a3.74,3.74,0,0,1-1.39,3.26c.93.22,1.39,1.09,1.39,2.58V194a4.65,4.65,0,0,1-.72,2.66A3.35,3.35,0,0,1,77.49,198.07Zm-1.95-7.95,1.88-.47a2.21,2.21,0,0,0,1.36-1,3.34,3.34,0,0,0,.47-1.88v-1.46q0-2.35-1.83-1.89l-1.88.48c-1.21.3-1.82,1.24-1.82,2.8v1.47C73.72,189.79,74.33,190.43,75.54,190.12Zm0,7.34,1.88-.48c1.22-.3,1.83-1.24,1.83-2.81v-1.59c0-1.56-.61-2.19-1.83-1.88l-1.88.47c-1.21.31-1.82,1.24-1.82,2.81v1.59C73.72,197.13,74.33,197.76,75.54,197.46Z"/><path class="cls-34" d="M87.44,195.56l-1.94.49a1.94,1.94,0,0,1-2-.43,3.26,3.26,0,0,1-.74-2.36v-8.78a4.83,4.83,0,0,1,.74-2.72,3.29,3.29,0,0,1,2-1.44l1.94-.48a1.92,1.92,0,0,1,2,.43,3.28,3.28,0,0,1,.72,2.36v8.78a4.9,4.9,0,0,1-.72,2.72A3.25,3.25,0,0,1,87.44,195.56Zm-1.86-.63,1.78-.45a2.14,2.14,0,0,0,1.35-1,3.53,3.53,0,0,0,.47-1.91v-8.68a2.46,2.46,0,0,0-.47-1.68,1.27,1.27,0,0,0-1.35-.28l-1.78.45a2.13,2.13,0,0,0-1.35,1,3.54,3.54,0,0,0-.47,1.92V193a2.47,2.47,0,0,0,.47,1.69A1.29,1.29,0,0,0,85.58,194.93Z"/><path class="cls-34" d="M93.3,176.72l.28-.08q1.29-.31,1.29,1.35v.85c0,1.13-.43,1.81-1.29,2l-.28.08c-.86.21-1.3-.24-1.3-1.37v-.86C92,177.6,92.44,176.93,93.3,176.72Zm.24.46-.2.06a1,1,0,0,0-.68.43,2,2,0,0,0-.18,1v.81a1.48,1.48,0,0,0,.18.87c.13.15.35.18.68.1l.2-.05a1,1,0,0,0,.67-.44,2,2,0,0,0,.18-1v-.81a1.42,1.42,0,0,0-.18-.86C94.09,177.13,93.86,177.1,93.54,177.18Zm.49,8.57-.21.06c-.09,0-.11-.05-.07-.21s.55-1.75,1.5-4.75,1.45-4.59,1.5-4.76.11-.21.18-.23l.22-.06c.1,0,.12,0,.06.2l-3,9.52C94.17,185.66,94.11,185.74,94,185.75Zm3.36-5.06.29-.07a.92.92,0,0,1,1,.16A1.78,1.78,0,0,1,99,182v.85c0,1.12-.43,1.79-1.28,2l-.29.07c-.86.22-1.29-.24-1.29-1.36v-.85Q96.1,181,97.39,180.69Zm.25.46-.2,0a1,1,0,0,0-.68.44,1.89,1.89,0,0,0-.19,1v.79a1.46,1.46,0,0,0,.19.87c.13.15.36.18.68.1l.2-.05a1,1,0,0,0,.67-.44,1.87,1.87,0,0,0,.19-1v-.8a1.35,1.35,0,0,0-.19-.87C98.19,181.1,98,181.07,97.64,181.15Z"/><path class="cls-34" d="M77.62,233.8l-1.8.49a1.93,1.93,0,0,1-2-.4,3.19,3.19,0,0,1-.73-2.34v-8.78a4.89,4.89,0,0,1,.73-2.74,3.38,3.38,0,0,1,2-1.47l3.68-1q.21-.06.21.21v.59a.28.28,0,0,1-.21.3l-3.6,1a2.18,2.18,0,0,0-1.35,1,3.59,3.59,0,0,0-.47,1.92v2.84l3.54-.95a1.93,1.93,0,0,1,2,.39,3.17,3.17,0,0,1,.74,2.32v2.45a4.92,4.92,0,0,1-.74,2.74A3.32,3.32,0,0,1,77.62,233.8Zm-1.72-.63,1.64-.45a2.19,2.19,0,0,0,1.36-1,3.61,3.61,0,0,0,.46-1.93v-2.34a2.38,2.38,0,0,0-.46-1.65,1.28,1.28,0,0,0-1.36-.26l-3.46.93v4.74a2.44,2.44,0,0,0,.47,1.68A1.27,1.27,0,0,0,75.9,233.17Z"/><path class="cls-34" d="M87.52,231.14l-1.93.52a1.91,1.91,0,0,1-2-.39,3.21,3.21,0,0,1-.74-2.35v-8.78a4.94,4.94,0,0,1,.74-2.74,3.32,3.32,0,0,1,2-1.46l1.93-.52a1.91,1.91,0,0,1,2,.4,3.23,3.23,0,0,1,.72,2.34v8.78a5,5,0,0,1-.72,2.74A3.32,3.32,0,0,1,87.52,231.14Zm-1.85-.6,1.78-.48a2.21,2.21,0,0,0,1.35-1,3.57,3.57,0,0,0,.47-1.92v-8.68a2.41,2.41,0,0,0-.47-1.67,1.27,1.27,0,0,0-1.35-.26l-1.78.48a2.2,2.2,0,0,0-1.36,1,3.57,3.57,0,0,0-.46,1.92v8.68a2.42,2.42,0,0,0,.46,1.67A1.28,1.28,0,0,0,85.67,230.54Z"/><path class="cls-34" d="M93.39,212.2l.28-.08q1.29-.35,1.29,1.32v.86q0,1.69-1.29,2l-.28.08c-.87.23-1.3-.22-1.3-1.35v-.86C92.09,213.1,92.52,212.43,93.39,212.2Zm.24.46-.21.06a1,1,0,0,0-.67.44,2,2,0,0,0-.18,1v.81a1.44,1.44,0,0,0,.18.86c.13.15.35.18.67.09l.21,0a1.09,1.09,0,0,0,.67-.45,2.07,2.07,0,0,0,.18-1v-.81a1.38,1.38,0,0,0-.18-.85C94.17,212.6,94,212.58,93.63,212.66Zm.49,8.56-.21.06c-.09,0-.11,0-.07-.21s.54-1.75,1.5-4.77,1.45-4.61,1.5-4.79.11-.21.18-.23l.22-.06c.1,0,.12,0,.06.2l-3,9.57C94.26,221.13,94.2,221.2,94.12,221.22Zm3.36-5.12.29-.07a.92.92,0,0,1,1,.15,1.7,1.7,0,0,1,.31,1.18v.86a1.83,1.83,0,0,1-1.28,2l-.29.07c-.86.23-1.29-.21-1.29-1.33v-.86C96.19,217,96.62,216.33,97.48,216.1Zm.25.46-.2.06a1,1,0,0,0-.68.44,1.91,1.91,0,0,0-.19,1v.8a1.34,1.34,0,0,0,.19.86c.13.15.36.18.68.09l.2-.05a1,1,0,0,0,.67-.45,1.94,1.94,0,0,0,.19-1v-.79a1.35,1.35,0,0,0-.19-.87C98.28,216.5,98.06,216.47,97.73,216.56Z"/><path class="cls-34" d="M79,272l-.52.16c-.14,0-.21,0-.21-.23V269l-5.61,1.71c-.19.06-.29,0-.29-.25V270a2,2,0,0,1,.13-.61l5.07-12.35a.8.8,0,0,1,.47-.51l.91-.28c.18-.05.27,0,.27.29V267.6l1.45-.44q.21-.07.21.18v.58a.32.32,0,0,1-.21.34l-1.45.44v2.91A.33.33,0,0,1,79,272Zm-.73-4.08V257.45l-4.88,11.93Z"/><path class="cls-34" d="M87.46,269.38l-1.94.59a1.88,1.88,0,0,1-2-.32,3.1,3.1,0,0,1-.74-2.32v-8.78a5,5,0,0,1,.74-2.76,3.53,3.53,0,0,1,2-1.54l1.94-.59a1.87,1.87,0,0,1,2,.33,3.14,3.14,0,0,1,.72,2.32v8.78a5.11,5.11,0,0,1-.72,2.76A3.49,3.49,0,0,1,87.46,269.38Zm-1.86-.53,1.78-.54a2.32,2.32,0,0,0,1.35-1,3.69,3.69,0,0,0,.47-1.94v-8.68a2.34,2.34,0,0,0-.47-1.65,1.21,1.21,0,0,0-1.35-.21l-1.78.54a2.27,2.27,0,0,0-1.35,1,3.69,3.69,0,0,0-.47,1.94V267a2.35,2.35,0,0,0,.47,1.66A1.24,1.24,0,0,0,85.6,268.85Z"/><path class="cls-34" d="M93.32,250.23l.28-.09c.86-.26,1.29.17,1.29,1.28v.85a1.9,1.9,0,0,1-1.29,2.09l-.28.09c-.86.26-1.3-.17-1.3-1.3v-.86A1.89,1.89,0,0,1,93.32,250.23Zm.24.45-.21.07a1.1,1.1,0,0,0-.67.46,2.07,2.07,0,0,0-.18,1V253a1.38,1.38,0,0,0,.18.85c.13.15.35.17.67.07l.21-.06a1.09,1.09,0,0,0,.67-.48,2.05,2.05,0,0,0,.19-1v-.81a1.37,1.37,0,0,0-.19-.85C94.11,250.61,93.88,250.59,93.56,250.68Zm.5,8.55-.22.06c-.09,0-.11,0-.07-.2l1.5-4.83q1.42-4.57,1.5-4.84t.18-.24l.22-.07c.1,0,.13,0,.06.2l-3,9.68C94.19,259.13,94.13,259.21,94.06,259.23ZM97.42,254l.28-.08a.9.9,0,0,1,1,.11,1.7,1.7,0,0,1,.31,1.18V256a1.9,1.9,0,0,1-1.28,2.08l-.28.08c-.87.27-1.3-.16-1.3-1.28v-.86A1.9,1.9,0,0,1,97.42,254Zm.24.46-.2.06a1.11,1.11,0,0,0-.68.47,1.93,1.93,0,0,0-.19,1v.79a1.41,1.41,0,0,0,.19.86c.13.14.36.16.68.06l.2-.06a1.14,1.14,0,0,0,.68-.47,2.09,2.09,0,0,0,.18-1v-.8a1.44,1.44,0,0,0-.18-.87C98.21,254.36,98,254.34,97.66,254.44Z"/><path class="cls-34" d="M73.48,308.38v-2.15a5,5,0,0,1,1.16-3.17l3.81-4.83a4.34,4.34,0,0,0,1-2.75v-1c0-1.57-.61-2.16-1.84-1.79l-1.39.43c-1.21.37-1.82,1.34-1.82,2.9v1.1q0,.3-.21.36l-.56.17c-.15,0-.22,0-.22-.23v-1.12a4.87,4.87,0,0,1,.74-2.72,3.52,3.52,0,0,1,2-1.51l1.57-.48a1.9,1.9,0,0,1,2,.29,3,3,0,0,1,.73,2.28v1a5.45,5.45,0,0,1-1.22,3.45l-3.85,4.92a3.45,3.45,0,0,0-.81,2.18v1.41l5.72-1.74c.14,0,.21,0,.21.2v.59a.3.3,0,0,1-.21.33l-6.54,2C73.56,308.62,73.48,308.56,73.48,308.38Z"/><path class="cls-34" d="M87.5,304.37l-1.93.59a1.9,1.9,0,0,1-2-.32,3.12,3.12,0,0,1-.74-2.32v-8.78a5,5,0,0,1,.74-2.77,3.47,3.47,0,0,1,2-1.53l1.93-.6a1.9,1.9,0,0,1,2,.33,3.14,3.14,0,0,1,.72,2.32v8.78a5.09,5.09,0,0,1-.72,2.76A3.53,3.53,0,0,1,87.5,304.37Zm-1.85-.54,1.78-.54a2.32,2.32,0,0,0,1.35-1,3.67,3.67,0,0,0,.47-1.94v-8.68a2.34,2.34,0,0,0-.47-1.65,1.25,1.25,0,0,0-1.35-.21l-1.78.54a2.34,2.34,0,0,0-1.36,1,3.69,3.69,0,0,0-.46,1.94V302a2.34,2.34,0,0,0,.46,1.65A1.25,1.25,0,0,0,85.65,303.83Z"/><path class="cls-34" d="M93.37,285.21l.28-.08c.86-.27,1.29.16,1.29,1.27v.86a1.91,1.91,0,0,1-1.29,2.09l-.28.08c-.87.27-1.3-.17-1.3-1.3v-.85A1.89,1.89,0,0,1,93.37,285.21Zm.24.46-.21.06a1.11,1.11,0,0,0-.67.47,2,2,0,0,0-.18,1V288a1.42,1.42,0,0,0,.18.86c.13.14.35.16.67.06l.21-.06a1.11,1.11,0,0,0,.67-.47,2.07,2.07,0,0,0,.18-1v-.81a1.36,1.36,0,0,0-.18-.85C94.15,285.59,93.93,285.57,93.61,285.67Zm.49,8.54-.21.07c-.09,0-.11,0-.07-.21s.54-1.78,1.49-4.83,1.46-4.66,1.51-4.84.11-.22.18-.24l.22-.06c.1,0,.12,0,.06.19l-3,9.68Q94.22,294.18,94.1,294.21ZM97.46,289l.29-.09a.88.88,0,0,1,1,.12,1.66,1.66,0,0,1,.31,1.17V291a1.89,1.89,0,0,1-1.28,2.07l-.29.09q-1.29.39-1.29-1.29V291A1.89,1.89,0,0,1,97.46,289Zm.25.45-.2.06a1.11,1.11,0,0,0-.68.47,2,2,0,0,0-.19,1v.8a1.32,1.32,0,0,0,.19.85c.13.14.35.16.68.06l.2-.06a1.08,1.08,0,0,0,.67-.47,1.94,1.94,0,0,0,.19-1v-.8a1.3,1.3,0,0,0-.19-.86C98.26,289.34,98,289.32,97.71,289.42Z"/><path class="cls-34" d="M87.5,339.13l-1.93.59a1.9,1.9,0,0,1-2-.32,3.12,3.12,0,0,1-.74-2.32V328.3a5,5,0,0,1,.74-2.77,3.53,3.53,0,0,1,2-1.54l1.93-.59a1.9,1.9,0,0,1,2,.33,3.14,3.14,0,0,1,.72,2.32v8.78a5.09,5.09,0,0,1-.72,2.76A3.53,3.53,0,0,1,87.5,339.13Zm-1.85-.54,1.78-.54a2.32,2.32,0,0,0,1.35-1,3.67,3.67,0,0,0,.47-1.94v-8.68a2.34,2.34,0,0,0-.47-1.65,1.25,1.25,0,0,0-1.35-.21l-1.78.54a2.34,2.34,0,0,0-1.36,1,3.67,3.67,0,0,0-.46,1.94v8.68a2.34,2.34,0,0,0,.46,1.65A1.26,1.26,0,0,0,85.65,338.59Z"/><path class="cls-34" d="M93.37,320l.28-.09c.86-.26,1.29.17,1.29,1.28V322a1.89,1.89,0,0,1-1.29,2.08l-.28.09c-.87.26-1.3-.17-1.3-1.3V322A1.88,1.88,0,0,1,93.37,320Zm.24.46-.21.06a1.11,1.11,0,0,0-.67.47,2,2,0,0,0-.18,1v.81a1.44,1.44,0,0,0,.18.86c.13.14.35.16.67.06l.21-.06a1.15,1.15,0,0,0,.67-.47,2.09,2.09,0,0,0,.18-1v-.82a1.35,1.35,0,0,0-.18-.84C94.15,320.35,93.93,320.33,93.61,320.43ZM94.1,329l-.21.07c-.09,0-.11-.05-.07-.21s.54-1.78,1.49-4.83,1.46-4.66,1.51-4.84.11-.22.18-.24l.22-.07c.1,0,.12,0,.06.2l-3,9.68Q94.22,328.94,94.1,329Zm3.36-5.25.29-.08a.9.9,0,0,1,1,.11,1.7,1.7,0,0,1,.31,1.18v.85a1.9,1.9,0,0,1-1.28,2.08l-.29.08c-.86.27-1.29-.16-1.29-1.28v-.86A1.91,1.91,0,0,1,97.46,323.72Zm.25.46-.2.06a1.11,1.11,0,0,0-.68.47,1.93,1.93,0,0,0-.19,1v.79a1.34,1.34,0,0,0,.19.86c.13.14.35.16.68.06l.2-.06a1.12,1.12,0,0,0,.67-.47,2,2,0,0,0,.19-1v-.8a1.3,1.3,0,0,0-.19-.86C98.26,324.1,98,324.08,97.71,324.18Z"/><path class="cls-31" d="M319,272.92l-.77.22c-.14,0-.21,0-.2-.16l.31-7.87a.28.28,0,0,1,.22-.28l2.86-.82a1.47,1.47,0,0,1,1.38.14,1.51,1.51,0,0,1,.45,1.33l0,1.09a2.54,2.54,0,0,1-1.24,2.21v.05l1.24,2.64c.08.15,0,.25-.17.3l-.76.22c-.2.06-.32,0-.37-.11l-1.19-2.6-1.24.35c-.1,0-.15.08-.15.17l-.11,2.84A.28.28,0,0,1,319,272.92Zm.51-4.32,1.55-.45A1.19,1.19,0,0,0,322,267l0-1.09c0-.63-.26-.87-.87-.69l-1.55.44a.16.16,0,0,0-.14.17l-.11,2.72C319.4,268.59,319.44,268.62,319.53,268.6Z"/><path class="cls-31" d="M327.87,270.4l-1.42.41a1.47,1.47,0,0,1-1.38-.13,1.57,1.57,0,0,1-.44-1.34l.17-4.3a2.78,2.78,0,0,1,.56-1.63,2.66,2.66,0,0,1,1.42-.92l1.42-.4a1.47,1.47,0,0,1,1.39.12,1.55,1.55,0,0,1,.44,1.34l-.17,4.31a2.77,2.77,0,0,1-.56,1.61A2.68,2.68,0,0,1,327.87,270.4Zm-1.21-.74,1.07-.3a1.2,1.2,0,0,0,.93-1.22l.17-4.2c0-.64-.26-.87-.86-.7l-1.06.3a1.18,1.18,0,0,0-.92,1.21l-.17,4.2C325.8,269.59,326.08,269.83,326.66,269.66Z"/><path class="cls-31" d="M334.63,268.48l-1.42.4a1.44,1.44,0,0,1-1.38-.13,1.52,1.52,0,0,1-.44-1.33l.17-4.31a2.72,2.72,0,0,1,.55-1.62,2.69,2.69,0,0,1,1.43-.92l1.42-.41a1.46,1.46,0,0,1,1.37.13,1.52,1.52,0,0,1,.44,1.34l0,.62a.29.29,0,0,1-.23.29l-.77.22c-.14,0-.21,0-.2-.17l0-.57c0-.64-.25-.87-.84-.71l-1.07.31a1.19,1.19,0,0,0-.92,1.2l-.16,4.21c0,.64.25.87.84.71l1.07-.31a1.19,1.19,0,0,0,.92-1.21l0-.56a.29.29,0,0,1,.22-.3l.77-.22c.14,0,.21,0,.21.17l0,.62a2.71,2.71,0,0,1-.56,1.62A2.67,2.67,0,0,1,334.63,268.48Z"/><path class="cls-31" d="M339,267.23l-.77.22c-.14,0-.21,0-.2-.16l.31-7.88a.28.28,0,0,1,.22-.28l.77-.22c.14,0,.21,0,.2.16l-.16,4.1h0a5.53,5.53,0,0,1,.35-.74l2.47-4.12a.68.68,0,0,1,.4-.33l.91-.26c.17,0,.2,0,.08.23L341.1,262l2.52,3.62c.09.15,0,.25-.16.3l-.68.2c-.22.06-.37,0-.46-.09l-2-2.9-1,1.48-.09,2.3A.28.28,0,0,1,339,267.23Z"/><path class="cls-31" d="M348.88,264.42,345,265.54c-.14,0-.21,0-.2-.16l.31-7.88a.28.28,0,0,1,.22-.28l3.92-1.12c.13,0,.19,0,.18.17l0,.66a.27.27,0,0,1-.21.27l-2.79.8c-.1,0-.15.08-.15.17l-.09,2.19c0,.08.05.11.14.08l2.37-.67c.14,0,.21,0,.21.16l0,.66a.29.29,0,0,1-.23.28l-2.36.67a.18.18,0,0,0-.15.17L346,264c0,.09,0,.13.14.1l2.79-.8c.13,0,.19,0,.18.17l0,.66A.27.27,0,0,1,348.88,264.42Z"/><path class="cls-31" d="M352.78,263.31l-.77.22c-.15,0-.22,0-.21-.16l.27-6.87q0-.12-.12-.09l-1.54.44c-.15,0-.22,0-.21-.16l0-.66a.3.3,0,0,1,.23-.28l4.55-1.29c.14-.05.21,0,.21.15l0,.66a.28.28,0,0,1-.23.28l-1.54.44a.18.18,0,0,0-.14.17L353,263A.28.28,0,0,1,352.78,263.31Z"/><path class="cls-31" d="M359.83,261.3l-.77.22c-.14,0-.21,0-.2-.16l.31-7.88a.29.29,0,0,1,.22-.28l2.91-.83a1.28,1.28,0,0,1,1.82,1.47l-.05,1.34a2.85,2.85,0,0,1-.56,1.62,2.69,2.69,0,0,1-1.42.93l-1.79.51c-.1,0-.15.08-.15.17l-.1,2.61A.28.28,0,0,1,359.83,261.3Zm.5-4.17,1.63-.46a1.18,1.18,0,0,0,.91-1.21l.05-1.23c0-.64-.25-.87-.83-.71l-1.63.47a.16.16,0,0,0-.14.16l-.11,2.89Q360.2,257.17,360.33,257.13Z"/><path class="cls-31" d="M366.29,259.46l-.77.22c-.14,0-.2,0-.2-.16l.32-7.88a.27.27,0,0,1,.21-.28l2.87-.81a1.45,1.45,0,0,1,1.38.14,1.55,1.55,0,0,1,.45,1.33l-.05,1.09a2.55,2.55,0,0,1-1.23,2.21v.05L370.5,258c.09.15,0,.25-.17.3l-.76.22c-.19.05-.31,0-.37-.11L368,255.81l-1.23.36a.18.18,0,0,0-.16.17l-.11,2.84A.27.27,0,0,1,366.29,259.46Zm.51-4.33,1.56-.44a1.19,1.19,0,0,0,.94-1.2l.05-1.09c0-.64-.27-.87-.87-.7l-1.56.45a.17.17,0,0,0-.14.16l-.1,2.73Q366.67,255.18,366.8,255.13Z"/><path class="cls-31" d="M375.14,256.94l-1.42.41a1.47,1.47,0,0,1-1.38-.14,1.54,1.54,0,0,1-.43-1.33l.17-4.31a2.74,2.74,0,0,1,.55-1.62,2.7,2.7,0,0,1,1.42-.92l1.42-.41a1.49,1.49,0,0,1,1.39.13,1.51,1.51,0,0,1,.44,1.33l-.17,4.31a2.71,2.71,0,0,1-.56,1.62A2.64,2.64,0,0,1,375.14,256.94Zm-1.2-.74,1.06-.31a1.2,1.2,0,0,0,.94-1.21l.16-4.2c0-.64-.26-.87-.85-.7l-1.07.3a1.19,1.19,0,0,0-.92,1.21l-.16,4.2C373.07,256.13,373.35,256.37,373.94,256.2Z"/><path class="cls-31" d="M382.61,246.59l.77-.22c.14,0,.21,0,.2.15l-.24,6.11a2.77,2.77,0,0,1-.56,1.61,2.66,2.66,0,0,1-1.42.93l-1.22.35a1.49,1.49,0,0,1-1.39-.13,1.52,1.52,0,0,1-.44-1.33l0-1.17a.3.3,0,0,1,.23-.28l.77-.22c.14,0,.21,0,.2.16l0,1.12c0,.63.26.87.84.7l.87-.25a1.17,1.17,0,0,0,.92-1.2l.24-6A.29.29,0,0,1,382.61,246.59Z"/><path class="cls-31" d="M389.11,253l-3.92,1.12c-.13,0-.2,0-.2-.16l.32-7.88a.28.28,0,0,1,.21-.28l3.92-1.11c.13,0,.19,0,.19.16l0,.66a.26.26,0,0,1-.2.28l-2.79.79a.2.2,0,0,0-.16.17l-.08,2.19c0,.08,0,.11.14.09l2.36-.68c.15,0,.22,0,.21.16l0,.66a.29.29,0,0,1-.23.28l-2.36.68a.18.18,0,0,0-.16.17l-.09,2.3c0,.09,0,.13.14.1l2.79-.79c.14,0,.2,0,.19.16l0,.66A.25.25,0,0,1,389.11,253Z"/><path class="cls-31" d="M394.06,251.56l-1.42.4a1.47,1.47,0,0,1-1.38-.13,1.52,1.52,0,0,1-.44-1.33l.17-4.31a2.79,2.79,0,0,1,.55-1.62,2.64,2.64,0,0,1,1.43-.93l1.42-.4a1.49,1.49,0,0,1,1.37.12,1.54,1.54,0,0,1,.44,1.34l0,.63a.29.29,0,0,1-.23.29l-.77.22c-.14,0-.21,0-.2-.17l0-.57c0-.64-.25-.88-.84-.71l-1.07.3a1.18,1.18,0,0,0-.91,1.21l-.17,4.21c0,.63.25.87.84.7l1.07-.3a1.2,1.2,0,0,0,.92-1.21l0-.57a.28.28,0,0,1,.22-.29l.77-.22c.14,0,.21,0,.21.17l0,.62a2.71,2.71,0,0,1-.56,1.62A2.67,2.67,0,0,1,394.06,251.56Z"/><path class="cls-31" d="M399.63,250l-.78.22c-.14,0-.21,0-.21-.16l.28-6.87q0-.12-.12-.09l-1.54.44c-.15,0-.22,0-.22-.16l0-.66a.29.29,0,0,1,.23-.28l4.54-1.29c.15-.05.22,0,.21.15l0,.66a.29.29,0,0,1-.23.28l-1.54.44a.18.18,0,0,0-.14.17l-.28,6.87A.26.26,0,0,1,399.63,250Z"/><path class="cls-31" d="M408.56,247.43l-1.21.34a.17.17,0,0,1-.25-.14l-1.72-7.28c0-.15,0-.25.19-.3l.87-.25a.17.17,0,0,1,.23.16l1.31,6.3h0l1.83-7.2a.37.37,0,0,1,.26-.29l.85-.25c.17,0,.24,0,.19.2l-2.36,8.43A.35.35,0,0,1,408.56,247.43Z"/><path class="cls-31" d="M415.17,245.54l-1.42.41a1.47,1.47,0,0,1-1.38-.13,1.6,1.6,0,0,1-.44-1.34l.18-4.31a2.77,2.77,0,0,1,.55-1.62,2.66,2.66,0,0,1,1.42-.92l1.42-.4a1.46,1.46,0,0,1,1.39.12,1.52,1.52,0,0,1,.44,1.34l-.17,4.31a2.7,2.7,0,0,1-.56,1.61A2.64,2.64,0,0,1,415.17,245.54Zm-1.2-.74,1.06-.3a1.19,1.19,0,0,0,.93-1.21l.17-4.21c0-.64-.26-.87-.85-.7l-1.07.3a1.19,1.19,0,0,0-.92,1.21l-.17,4.2C413.1,244.73,413.38,245,414,244.8Z"/><path class="cls-31" d="M422.91,243.34l-4,1.13c-.14,0-.2,0-.2-.16l.32-7.88a.27.27,0,0,1,.21-.28l.77-.22c.14,0,.21,0,.2.16l-.27,6.85c0,.08,0,.11.14.08l2.84-.8c.14,0,.21,0,.2.17l0,.67A.28.28,0,0,1,422.91,243.34Z"/><path class="cls-31" d="M428.69,233.47l.77-.22q.21-.06.21.15l-.24,6.1a2.78,2.78,0,0,1-.57,1.62,2.69,2.69,0,0,1-1.42.93l-1.36.39a1.47,1.47,0,0,1-1.38-.14,1.54,1.54,0,0,1-.44-1.33l.24-6.09a.28.28,0,0,1,.22-.28l.77-.22c.14,0,.21,0,.2.16l-.24,6c0,.64.26.88.84.71l1-.29a1.2,1.2,0,0,0,.93-1.21l.24-6A.27.27,0,0,1,428.69,233.47Z"/><path class="cls-31" d="M436.78,231.17l1.37-.39c.14,0,.2,0,.2.16l-.31,7.88a.27.27,0,0,1-.22.27l-.76.22c-.14,0-.21,0-.2-.16l.26-6.53h-.05l-1.78,5.19a.4.4,0,0,1-.28.28l-.78.23a.19.19,0,0,1-.25-.14l-1.44-4.28h-.05l-.26,6.55a.33.33,0,0,1-.05.19.45.45,0,0,1-.16.09l-.75.21c-.14,0-.21,0-.2-.16l.31-7.88a.29.29,0,0,1,.22-.28l1.37-.39a.14.14,0,0,1,.19.09l1.48,4.51h.06l1.89-5.48A.23.23,0,0,1,436.78,231.17Z"/><path class="cls-31" d="M443.94,237.35,440,238.47c-.14,0-.2,0-.2-.16l.32-7.88a.26.26,0,0,1,.21-.28l3.92-1.12c.13,0,.19,0,.19.17l0,.66a.26.26,0,0,1-.2.27l-2.8.8a.19.19,0,0,0-.15.17l-.08,2.19c0,.08,0,.11.14.08l2.36-.67c.15,0,.22,0,.21.16l0,.66a.3.3,0,0,1-.23.28l-2.37.67a.2.2,0,0,0-.15.17l-.09,2.31c0,.09,0,.13.14.1l2.79-.8c.13,0,.2,0,.19.17l0,.66A.26.26,0,0,1,443.94,237.35Z"/><path class="cls-31" d="M451.8,235.11l-1.42.41a1.47,1.47,0,0,1-1.38-.13,1.57,1.57,0,0,1-.44-1.34l.17-4.3a2.78,2.78,0,0,1,.56-1.63,2.62,2.62,0,0,1,1.42-.92l1.42-.4a1.49,1.49,0,0,1,1.37.12,1.56,1.56,0,0,1,.45,1.34l0,.62a.28.28,0,0,1-.23.3l-.77.22c-.14,0-.2,0-.2-.18l0-.57c0-.63-.25-.87-.84-.7l-1.06.3a1.18,1.18,0,0,0-.92,1.21l-.17,4.2c0,.64.26.88.84.71l1.07-.3a1.19,1.19,0,0,0,.92-1.21l0-.57a.28.28,0,0,1,.22-.29l.77-.22c.15,0,.22,0,.21.17l0,.62a2.85,2.85,0,0,1-.56,1.62A2.74,2.74,0,0,1,451.8,235.11Z"/><path class="cls-31" d="M456.19,233.86l-.77.22c-.14,0-.2,0-.2-.16l.31-7.88a.29.29,0,0,1,.22-.28l.77-.22c.14,0,.21,0,.2.17l-.13,3.23c0,.09.05.11.15.09l2.58-.74a.17.17,0,0,0,.13-.16l.13-3.24a.27.27,0,0,1,.21-.28l.78-.22c.14,0,.21,0,.2.16l-.31,7.88a.27.27,0,0,1-.22.28l-.78.22c-.14,0-.2,0-.2-.16l.13-3.27c0-.09,0-.12-.12-.1l-2.58.74c-.1,0-.15.08-.15.17l-.13,3.27A.28.28,0,0,1,456.19,233.86Z"/><path class="cls-31" d="M462.67,232l-.88.25c-.12,0-.15,0-.12-.19l2.45-8.48a.39.39,0,0,1,.3-.3l1.22-.35c.17,0,.26,0,.29.13l1.82,7.28a.2.2,0,0,1-.15.25l-.87.25a.19.19,0,0,1-.15,0s-.05-.07-.06-.16l-.4-1.54-2.69.76-.53,1.82A.36.36,0,0,1,462.67,232Zm2.29-7.65-1.24,4.45,2.21-.63-.92-3.83Z"/><path class="cls-31" d="M469.93,230l-.77.22c-.14,0-.21,0-.2-.16l.31-7.88a.28.28,0,0,1,.22-.28l2.86-.81a1.44,1.44,0,0,1,1.38.14,1.5,1.5,0,0,1,.45,1.33l0,1.09a2.56,2.56,0,0,1-1.24,2.21v.05l1.24,2.64c.08.14,0,.25-.17.3l-.76.22c-.2,0-.32,0-.37-.11l-1.19-2.61-1.24.36a.16.16,0,0,0-.15.17l-.12,2.84A.26.26,0,0,1,469.93,230Zm.51-4.32,1.55-.45a1.19,1.19,0,0,0,.95-1.2l0-1.09c0-.64-.26-.87-.87-.7l-1.55.45a.16.16,0,0,0-.14.16l-.11,2.73C470.31,225.62,470.35,225.65,470.44,225.63Z"/><path class="cls-31" d="M477.74,227.73,477,228c-.15,0-.22,0-.22-.16l.28-6.87q0-.13-.12-.09l-1.54.44c-.15,0-.22,0-.21-.16l0-.66a.29.29,0,0,1,.23-.28l4.54-1.3c.15,0,.22,0,.21.16l0,.66a.28.28,0,0,1-.23.28l-1.54.44a.17.17,0,0,0-.14.17l-.28,6.87A.26.26,0,0,1,477.74,227.73Z"/><path class="cls-31" d="M351.13,248.4l-.95.27c-.22.06-.33,0-.32-.33l.86-21.6a.48.48,0,0,1,.35-.51l7.59-2.16a3.58,3.58,0,0,1,3.35.35,3.79,3.79,0,0,1,1.11,3.28l-.16,4.08a6.81,6.81,0,0,1-1.4,4,6.51,6.51,0,0,1-3.45,2.29l-5.95,1.69a.41.41,0,0,0-.34.38l-.31,7.75A.5.5,0,0,1,351.13,248.4Zm1.1-10.25,5.81-1.66a4.3,4.3,0,0,0,2.35-1.55,4.8,4.8,0,0,0,.89-2.75l.16-3.95a2.89,2.89,0,0,0-.69-2.34,2.36,2.36,0,0,0-2.28-.23l-5.81,1.66a.42.42,0,0,0-.35.41l-.4,10.22C351.9,238.15,352,238.21,352.23,238.15Z"/><path class="cls-31" d="M375.51,241.46l-4.07,1.15a3.5,3.5,0,0,1-3.33-.36A3.82,3.82,0,0,1,367,239l.5-12.53a6.81,6.81,0,0,1,1.38-4,6.41,6.41,0,0,1,3.44-2.29L376.4,219a3.5,3.5,0,0,1,3.33.36,3.81,3.81,0,0,1,1.1,3.27l-.5,12.53a6.76,6.76,0,0,1-1.39,4A6.42,6.42,0,0,1,375.51,241.46Zm-3.87-.46,3.76-1.07a4.31,4.31,0,0,0,2.37-1.55,4.85,4.85,0,0,0,.91-2.8l.49-12.39a2.76,2.76,0,0,0-.71-2.33,2.38,2.38,0,0,0-2.29-.23l-3.76,1.08a4.19,4.19,0,0,0-2.35,1.56,5,5,0,0,0-.9,2.77l-.49,12.39a2.89,2.89,0,0,0,.69,2.33A2.33,2.33,0,0,0,371.64,241Z"/><path class="cls-31" d="M390.3,237.24l-1.65.47c-.24.07-.39,0-.44-.28l-3.67-20.32c-.06-.26.06-.43.35-.51l1.08-.31c.25-.07.38,0,.42.29l3.13,18.92.17-.05L395.5,214a.63.63,0,0,1,.45-.5l1.25-.36c.27-.07.42,0,.45.25L401.91,232l.16-.05,4.7-21.14a.64.64,0,0,1,.47-.55l1.13-.32c.26-.07.35,0,.28.34l-5.38,22.89a.64.64,0,0,1-.45.54l-1.68.48c-.25.07-.39,0-.45-.29l-4.11-18.29-.13,0-5.7,21.08A.67.67,0,0,1,390.3,237.24Z"/><path class="cls-31" d="M422.17,228.17l-10.2,2.9c-.22.07-.33,0-.32-.32l.86-21.6a.5.5,0,0,1,.35-.52l10.2-2.9c.27-.08.39,0,.38.27l0,.8a.5.5,0,0,1-.41.5l-8.55,2.43a.43.43,0,0,0-.35.41l-.31,8c0,.21.09.28.31.22l7.63-2.17c.24-.07.36,0,.35.28l0,.8a.49.49,0,0,1-.38.49L414,220a.42.42,0,0,0-.34.41l-.34,8.44c0,.21.1.29.32.22l8.55-2.43q.4-.12.39.27l0,.8A.5.5,0,0,1,422.17,228.17Z"/><path class="cls-31" d="M428.81,226.28l-1,.27c-.22.06-.32-.05-.31-.32l.86-21.61a.48.48,0,0,1,.34-.51l7.53-2.15a3.6,3.6,0,0,1,3.35.36,3.79,3.79,0,0,1,1.11,3.28l-.13,3.31a6.76,6.76,0,0,1-1.07,3.48,6.48,6.48,0,0,1-2.62,2.33v.14l3.59,7.68c.12.24,0,.4-.25.48l-1,.3a.42.42,0,0,1-.57-.25l-3.55-7.69-5.22,1.49a.41.41,0,0,0-.34.4l-.34,8.49A.5.5,0,0,1,428.81,226.28Zm1.12-10.91,5.71-1.63a4.39,4.39,0,0,0,2.38-1.56,4.67,4.67,0,0,0,.93-2.76l.13-3.29a2.78,2.78,0,0,0-.72-2.31,2.43,2.43,0,0,0-2.31-.24l-5.72,1.63a.42.42,0,0,0-.34.41l-.38,9.53C429.6,215.36,429.71,215.43,429.93,215.37Z"/><path class="cls-31" d="M457.54,195.91l.93-.26c.24-.07.36,0,.34.28l-.67,17.1a6.82,6.82,0,0,1-1.39,4,6.42,6.42,0,0,1-3.43,2.29l-3.7,1a3.53,3.53,0,0,1-3.34-.36,3.82,3.82,0,0,1-1.09-3.28l.68-17.06a.5.5,0,0,1,.34-.52l1-.27c.24-.07.36,0,.35.32l-.68,17a2.86,2.86,0,0,0,.7,2.33,2.31,2.31,0,0,0,2.27.24l3.4-1a4.4,4.4,0,0,0,2.37-1.56,4.89,4.89,0,0,0,.91-2.79l.67-17A.5.5,0,0,1,457.54,195.91Z"/><path class="cls-31" d="M464.68,216.07l-1,.27c-.22.06-.33-.05-.31-.33l.85-21.6a.48.48,0,0,1,.35-.51l7.6-2.17a3.61,3.61,0,0,1,3.35.36,3.78,3.78,0,0,1,1.11,3.27l-.17,4.09a6.69,6.69,0,0,1-1.4,4,6.47,6.47,0,0,1-3.45,2.3l-5.94,1.69a.41.41,0,0,0-.35.37l-.3,7.75A.52.52,0,0,1,464.68,216.07Zm1.09-10.25,5.81-1.66a4.26,4.26,0,0,0,2.35-1.55,4.8,4.8,0,0,0,.89-2.75l.16-4a2.89,2.89,0,0,0-.69-2.34,2.36,2.36,0,0,0-2.28-.23L466.2,195a.41.41,0,0,0-.34.41l-.41,10.22C465.44,205.82,465.55,205.88,465.77,205.82Z"/><path class="cls-35" d="M543.65,168.11l-15.64-15-6.42-2.27.49.47-.24-.09a.45.45,0,0,0-.23,0l-.1,0h0l-.11.08,15,14.31,6.42,2.27-.27-.25Z"/><polygon class="cls-36" points="520.8 191.98 514.38 189.7 514.61 189.45 521.03 191.72 520.8 191.98"/><polygon class="cls-36" points="524.52 195.53 518.11 193.25 514.38 189.7 520.8 191.98 524.52 195.53"/><polygon class="cls-36" points="520.94 191.66 514.52 189.38 512.66 187.61 519.08 189.89 520.94 191.66"/><path class="cls-37" d="M505.38,189.56l.38.32a.18.18,0,0,1-.07.05l-.33-.31A.14.14,0,0,0,505.38,189.56Z"/><polygon class="cls-38" points="513.16 169.52 506.74 167.25 521.38 151.39 527.8 153.67 513.16 169.52"/><path class="cls-39" d="M505,189.23l.39.33a.14.14,0,0,1,0,.06l-.38-.36A0,0,0,0,0,505,189.23Z"/><path class="cls-37" d="M505,189.26l-.3-.29.31.26A0,0,0,0,1,505,189.26Z"/><polygon class="cls-40" points="504.67 188.97 504.67 188.97 504.68 188.97 504.67 188.97"/><path class="cls-41" d="M504.68,189l-.45.42-.15.1C504.43,189.17,504.65,189,504.68,189Z"/><g class="cls-1"><path class="cls-35" d="M506.49,180.53l-6.42-2.27c0-.88,0-1.77,0-2.66l6.42,2.28c0,.88,0,1.77,0,2.65"/></g><g class="cls-13"><path class="cls-42" d="M508.31,179.62l10.77,10.27L515.84,197,506,187.58l-.39-.38-4.26-4.06,5.19-2.61.49-.24Zm-5.43,3.44,12.76,12.06,2.38-5.47-1-1.18-1.55,3.89-10.6-9.89-2,.59"/></g><g class="cls-13"><polygon class="cls-43" points="501.3 183.14 494.88 180.87 500.07 178.26 506.49 180.53 501.3 183.14"/></g><polygon class="cls-3" points="521.03 191.72 520.8 191.98 524.52 195.53 528.42 184.15 528.76 183.18 521.03 191.72"/><path class="cls-3" d="M543.12,167.65l-14.73-14a.4.4,0,0,0-.36-.1.51.51,0,0,0-.23.14l-14.64,15.85.8-.34-7.84,8.31a.33.33,0,0,0,.1.14l.26.25.5.48,1.33,1.26,10.77,10.27,1.86,1.77a.24.24,0,0,0,.09.06l7.73-8.54-.34,1,14.69-15.89a.54.54,0,0,0,.13-.32A.45.45,0,0,0,543.12,167.65Z"/><polygon class="cls-3" points="513.16 169.52 506.24 172.48 505.79 172.68 502.09 174.26 505.82 177.81 506.12 177.49 513.96 169.18 513.16 169.52"/><polygon class="cls-36" points="505.82 177.81 499.4 175.53 495.67 171.98 502.09 174.26 505.82 177.81"/><polygon class="cls-44" points="505.95 187.57 505.56 187.2 501.3 183.14 494.88 180.87 499.14 184.92 499.53 185.3 509.42 194.72 515.84 197 505.95 187.57"/><g class="cls-13"><path class="cls-31" d="M503,187.39l1.66,1.58a27.78,27.78,0,0,0-7.9,11.79,20.51,20.51,0,0,0-1.16,4.53C506.48,202.39,511,195,511,195l2.66,2.53c-.09.19-1.85,3.63-6.75,7a26,26,0,0,0,3.66-3.12,30.6,30.6,0,0,1-13.69,6.81,41,41,0,0,1-4.7.8,27.34,27.34,0,0,1,.61-6.15C494.44,197.84,497.53,191.34,503,187.39Z"/></g><path class="cls-45" d="M504.68,189l.3.29.38.36.33.31a30.43,30.43,0,0,0-10.07,15.36,26.76,26.76,0,0,1,1.16-4.53A29.34,29.34,0,0,1,504.68,189Z"/><g class="cls-13"><path class="cls-46" d="M505.69,189.93l5.3,5c0,.06-4.51,7.41-15.37,10.31a20.51,20.51,0,0,1,1.16-4.53,26.76,26.76,0,0,0-1.16,4.53A30.43,30.43,0,0,1,505.69,189.93Z"/></g><g class="cls-13"><path class="cls-34" d="M501,187l-.18.19a31.53,31.53,0,0,0-8.07,15.74,27.34,27.34,0,0,0-.61,6.15,41,41,0,0,0,4.7-.8,30.6,30.6,0,0,0,13.69-6.81,26,26,0,0,1-3.66,3.12,31.78,31.78,0,0,1-11.36,5,39.14,39.14,0,0,1-4.69.79s0-.68,0-1.87c0-.18,0-.38.05-.58a32.93,32.93,0,0,1,1.93-8.68A30.44,30.44,0,0,1,501,187Z"/></g><path class="cls-47" d="M501.84,186.26,495.42,184c-.3.2-5.88,4-9,12.9a33.43,33.43,0,0,0-1.93,8.68c0,.21,0,.4,0,.59a14.05,14.05,0,0,0,0,1.87l6.41,2.27s0-.68,0-1.87c0-.18,0-.38.05-.58a32.93,32.93,0,0,1,1.93-8.68A30.44,30.44,0,0,1,501,187S501.77,186.31,501.84,186.26Z"/><g class="cls-13"><path class="cls-46" d="M501.84,186.26l1.18,1.13c-5.49,4-8.58,10.45-10.24,15.5a31.53,31.53,0,0,1,8.07-15.74C501.17,186.85,501.5,186.55,501.84,186.26Z"/></g><path class="cls-48" d="M523.27,170.38a4.11,4.11,0,0,0,1.18,2.25,4,4,0,0,0,3.68,1,4.69,4.69,0,0,0,3.59-4.67,21.16,21.16,0,0,1,2.19.13,7.06,7.06,0,0,1-1.85,4.59c.13-.2.24-.4.35-.61a6.32,6.32,0,0,1-.52.64,7,7,0,0,1-3.54,2.08,6.59,6.59,0,0,1-2.38.1,5.77,5.77,0,0,1-3.07-1.54,6,6,0,0,1-1.72-3.08C521.89,170.91,522.59,170.63,523.27,170.38Z"/><path class="cls-49" d="M526.46,163a6,6,0,0,1,5.58,1.45,6.12,6.12,0,0,1,1.87,4.64,21.16,21.16,0,0,0-2.19-.13,4.06,4.06,0,0,0-1.23-2.83,4,4,0,0,0-3.68-1,4.69,4.69,0,0,0-3.54,5.25c-.68.25-1.38.53-2.09.85a7,7,0,0,1,1.75-6.2A6.85,6.85,0,0,1,526.46,163Z"/><path class="cls-36" d="M521.07,171.28a6,6,0,0,0,1.7,3,5.89,5.89,0,0,0,3.2,1.56,6.45,6.45,0,0,0,2.51-.08,7,7,0,0,0,3.53-2.08l0-.05a7.37,7.37,0,0,1-.78,1,7,7,0,0,1-3.53,2.07,5.95,5.95,0,0,1-7.4-5.1Z"/><path class="cls-35" d="M521.68,166.62a6.86,6.86,0,0,0-.61,4.66l-.72.34A7,7,0,0,1,521.68,166.62Z"/><polygon class="cls-50" points="530.45 153.8 543.53 152.88 542.66 165.66 542.06 154.25 530.45 153.8"/><polygon class="cls-51" points="528.01 153.16 521.59 150.89 538.31 149.45 544.73 151.73 528.01 153.16"/><polygon class="cls-3" points="528.01 153.16 544.73 151.73 543.65 168.11 528.01 153.16"/><polyline class="cls-52" points="542.66 165.66 543.53 152.88 530.45 153.8 542.06 154.25 542.66 165.66"/><g class="cls-13"><polygon class="cls-46" points="504.87 182.47 515.46 192.36 517.01 188.47 518.02 189.65 515.64 195.12 502.88 183.06 504.87 182.47"/></g><path class="cls-53" d="M530.49,166.09a4,4,0,0,0-3.68-1,4.69,4.69,0,0,0-3.54,5.25,4.11,4.11,0,0,0,1.18,2.25,4,4,0,0,0,3.68,1,4.69,4.69,0,0,0,3.59-4.67A4.06,4.06,0,0,0,530.49,166.09Z"/><g class="cls-13"><path class="cls-52" d="M533.91,169.05a19.82,19.82,0,0,1,6,1.51l-18.63,20.19-4.64-4.43,4-9.36-8.77,4.78-2.09-2a37.3,37.3,0,0,1,10.65-8.13,5.95,5.95,0,0,0,7.4,5.1,7,7,0,0,0,3.53-2.07,7.37,7.37,0,0,0,.78-1A7.06,7.06,0,0,0,533.91,169.05Z"/></g><g class="cls-54"><path class="cls-48" d="M528.09,154.54,542.23,168l-2.36,2.55a19.82,19.82,0,0,0-6-1.51,6.12,6.12,0,0,0-1.87-4.64,6,6,0,0,0-5.58-1.45,6.85,6.85,0,0,0-3.53,2.07,7,7,0,0,0-1.75,6.2l-.11.05a6.86,6.86,0,0,1,.61-4.66,7,7,0,0,0-1.33,5,37.3,37.3,0,0,0-10.65,8.13l-2.44-2.32,7.42-8.36Z"/></g><path class="cls-3" d="M528.1,154l14.72,14-2.65,2.74a3.19,3.19,0,0,0-.3-.15l2.36-2.55-14.14-13.47-13.41,14.53Z"/><polygon class="cls-48" points="506.74 167.25 499.82 170.21 499.37 170.4 495.67 171.98 502.09 174.26 505.79 172.68 506.24 172.48 513.16 169.52 506.74 167.25"/><path class="cls-31" d="M336,254.08l-16.94,4.74a1.85,1.85,0,0,1-1.6-.11h0a1.67,1.67,0,0,1-.55-1.45h0V234.68a2.76,2.76,0,0,1,.55-1.76h0a3,3,0,0,1,1.6-1h0v.42a2.38,2.38,0,0,0-1.3.8h0a2.19,2.19,0,0,0-.43,1.42h0v22.59a1.37,1.37,0,0,0,.43,1.19h0a1.53,1.53,0,0,0,1.3.06h0L336,253.66a2.44,2.44,0,0,0,1.31-.79h0a2.27,2.27,0,0,0,.42-1.43h0V234l-6.33-5.08-12.34,3.45v-.42l12.43-3.47a.18.18,0,0,1,.16,0h0l6.45,5.18a.12.12,0,0,1,.05.12h0v17.55a2.76,2.76,0,0,1-.55,1.76h0a3,3,0,0,1-1.6,1Z"/><path class="cls-31" d="M331.85,235.14a1.71,1.71,0,0,1-.56-1.46h0v-5a.29.29,0,0,1,.14-.23h0a.18.18,0,0,1,.23,0h0l6.51,5.07a.19.19,0,0,1,0,.22h0a.28.28,0,0,1-.19.18h0l-4.57,1.28h0a1.83,1.83,0,0,1-1.59-.1Zm.29-.39a1.51,1.51,0,0,0,1.31.07h0l4.08-1.14-5.81-4.54v4.43a1.36,1.36,0,0,0,.42,1.18Z"/><path class="cls-31" d="M321.86,229.25c-1.4.39-2.23,1.22-2.23,2.21v.67l.85-.23v-.67c0-.71.75-1.07,1.38-1.24s1.38-.24,1.38.46v7.63c0,.7-.75,1.06-1.38,1.24s-1.38.24-1.38-.47v-5c0-.14-.13-.31-.42-.23a.6.6,0,0,0-.43.47v5c0,1,.83,1.36,2.23,1s2.23-1.22,2.23-2.22v-7.63C324.09,229.22,323.26,228.86,321.86,229.25Z"/><path class="cls-31" d="M323,253.84c-2.9-.91-3-3-3-3.32h0v0h0l.09-2.43a.28.28,0,0,1,.19-.25h0a.14.14,0,0,1,.22.09h0l.07.19h0a4.13,4.13,0,0,0,.26.51h0a4.67,4.67,0,0,0,1.34,1.42h0c1.33.93,3.66,1.59,7.72.46h0c.33-.09.67-.19,1-.31h0a.19.19,0,0,1,.15,0h0a.15.15,0,0,1,.07.14h0v2.2a.31.31,0,0,1-.15.25h0a12.37,12.37,0,0,1-2.56,1h0a9.61,9.61,0,0,1-5.39.05Zm-2.61-3.45h0c0,.22.06,2.14,2.83,3h0a9.2,9.2,0,0,0,5.17,0h0a14.06,14.06,0,0,0,1.78-.65h0l.51-.25h0v-1.83l-.82.25h0c-4.15,1.16-6.61.49-8-.5h0a5,5,0,0,1-1.4-1.47h0l0,1.47Z"/><path class="cls-31" d="M327.31,251.54c-6.51.42-7.21-3.38-7.21-3.43h0a.24.24,0,0,1,0-.18h0a.27.27,0,0,1,.16-.12h0l7.5-2.26a.16.16,0,0,1,.19,0h0l3.09,4.61-.18.16.18-.16a.18.18,0,0,1,0,.19h0a.29.29,0,0,1-.15.16h0a11.47,11.47,0,0,1-1.67.59h0a11.27,11.27,0,0,1-2,.39Zm3.27-1.24L327.7,246l-7.12,2.14c0,.09.07.19.12.31h0a3.61,3.61,0,0,0,.89,1.19h0c.92.85,2.64,1.67,5.81,1.46h0a9.86,9.86,0,0,0,1.88-.37h0c.46-.13.92-.28,1.3-.43Z"/><path class="cls-31" d="M331.56,252.17l-4-6.17-7.07,2.14a.17.17,0,0,1-.17,0h0a1,1,0,0,1-.29-.74h0a1.22,1.22,0,0,1,0-.32h0a.32.32,0,0,1,.2-.21h0l8.14-2.49a.18.18,0,0,1,.2.06h0l3.28,5.33a.29.29,0,0,1,0,.09h0V252a.3.3,0,0,1-.16.24h0l-.05,0h0a.16.16,0,0,1-.18-.05Zm-3.65-6.57,3.62,5.65V250l-3.19-5.19-7.85,2.39v.05h0a.72.72,0,0,0,.14.44h0l7.09-2.13h0a.18.18,0,0,1,.19.06Z"/><path class="cls-31" d="M331.62,252.22a.16.16,0,0,1-.09-.15h0v-2.13a.29.29,0,0,1,.13-.23h0l.3-.22h0c.18-.15.44-.36.73-.62h0a9.88,9.88,0,0,0,1.8-2.09h0a5.94,5.94,0,0,0,.69-1.44h0l0-.67a.29.29,0,0,1,.17-.24h0a.16.16,0,0,1,.23,0h0a.7.7,0,0,1,.06.32h0a2,2,0,0,1-.06.49h0l-.07,1.66v0a8.17,8.17,0,0,1-3.73,5.22h0l-.06,0h0a.17.17,0,0,1-.12,0ZM332,252l-.21,0,.21,0Zm0-.3a7.59,7.59,0,0,0,3-4.14h0a4.79,4.79,0,0,0,.12-.49h0l0-.62c-.09.17-.19.34-.31.53h0a11.78,11.78,0,0,1-2.88,3h0v1.7Z"/><path class="cls-31" d="M331.56,250l-3.28-5-8,2.26a.16.16,0,0,1-.15,0h0a.16.16,0,0,1-.06-.13h0a5.65,5.65,0,0,1,.71-2.21h0a9,9,0,0,1,4.38-3.83h0a13.84,13.84,0,0,1,2-.72h0c3.9-1.1,6.6.21,7.67,1.63h0a4,4,0,0,1,.78,2.42h0c0,1.68-1,3.78-3.81,5.67h0l-.08,0h0a.15.15,0,0,1-.18-.06Zm.18-.15.18-.15-.18.15Zm-3.16-5.29,3.25,5c2.58-1.8,3.37-3.61,3.38-5.09h0a3.7,3.7,0,0,0-.72-2.22h0c-1-1.31-3.56-2.59-7.31-1.53h0a13.7,13.7,0,0,0-1.92.7h0c-3.88,1.75-4.57,4.49-4.71,5.31h0l7.85-2.22h0a.16.16,0,0,1,.18.05Z"/><polyline class="cls-55" points="153.94 274.76 192.07 263.94 206.31 285.19 231.73 243.92 255.64 237.17 268.67 244.93 279.56 203.76 334.66 206.23 358.88 187.6 372.19 199.43 385.81 147.94 412.46 110.23 429.1 140.84 436.37 170.73 469.06 145.72 476.33 118.85 508.42 93.24 525.37 88.64"/><path class="cls-56" d="M552,224.48c1.32,5.17-17,13.6-40.86,18.84s-44.34,5.29-45.66.13,17-13.6,40.86-18.84S550.64,219.32,552,224.48Z"/></g></g></g></svg>