<svg xmlns="http://www.w3.org/2000/svg" xmlns:xlink="http://www.w3.org/1999/xlink" viewBox="0 0 329.71 242.58"><defs><style>.cls-1{fill:url(#linear-gradient);}.cls-2{fill:url(#linear-gradient-2);}.cls-3{fill:url(#linear-gradient-3);}.cls-4{fill:url(#linear-gradient-4);}.cls-5{fill:url(#linear-gradient-5);}.cls-6{fill:url(#linear-gradient-6);}.cls-7{fill:url(#linear-gradient-7);}.cls-8{fill:url(#linear-gradient-8);}.cls-9{fill:url(#linear-gradient-9);}</style><linearGradient id="linear-gradient" x1="-41.88" y1="216.17" x2="266.3" y2="14.27" gradientUnits="userSpaceOnUse"><stop offset="0.01" stop-color="#fc6d0f"/><stop offset="1" stop-color="#ffec1a"/></linearGradient><linearGradient id="linear-gradient-2" x1="-44.85" y1="211.64" x2="263.33" y2="9.74" xlink:href="#linear-gradient"/><linearGradient id="linear-gradient-3" x1="7.16" y1="142.18" x2="374.02" y2="-98.16" gradientTransform="translate(-115.86 60.21) rotate(-3.21)" xlink:href="#linear-gradient"/><linearGradient id="linear-gradient-4" x1="-283.84" y1="245.39" x2="90.78" y2="-0.03" gradientTransform="translate(163.69 -69.53) rotate(4.39)" xlink:href="#linear-gradient"/><linearGradient id="linear-gradient-5" x1="-149.17" y1="171.48" x2="261.72" y2="-97.71" xlink:href="#linear-gradient"/><linearGradient id="linear-gradient-6" x1="-65.43" y1="180.22" x2="242.75" y2="-21.68" xlink:href="#linear-gradient"/><linearGradient id="linear-gradient-7" x1="-15.44" y1="256.52" x2="292.73" y2="54.63" xlink:href="#linear-gradient"/><linearGradient id="linear-gradient-8" x1="-22.99" y1="244.99" x2="285.18" y2="43.1" xlink:href="#linear-gradient"/><linearGradient id="linear-gradient-9" x1="25.52" y1="319.04" x2="333.69" y2="117.15" xlink:href="#linear-gradient"/></defs><g id="圖層_2" data-name="圖層 2"><g id="OBJECTS"><path class="cls-1" d="M159.58,147.16c-1.11-4.75-9.64-15.42-9.64-15.42S179.59,102,183.82,95.65s2.81-17.12.66-26.61c-6.3,2.15-20.23,8.6-33,15.71,9.7-11.63,22.16-20.3,31.57-23.86-13.42-1.93-33.13-3.12-50.84-1,0,0,15.34-8.08,21.12-10.75a52.27,52.27,0,0,0-1,6.67c12.52-7.33,39.13-21.27,39.13-21.27s-27,2.74-41,6.52c0,0,5.64-6,9.12-9.85C138.23,37.54,117.33,51,117.33,51s1.78-4.12,3.28-8.29C112.11,50,103.88,59,103.88,59a54,54,0,0,1-6.67.89,97.18,97.18,0,0,1-3.85-18.49C92.43,43,91,45.73,91,45.73s.29-10.15.59-16.08c-1.85,2.7-5,7.15-7.6,11L77,46.4l2.19-7-8.3,8,1.33-5.78s1.86-2.07,2.08-3.48a18.9,18.9,0,0,0,0-5.41c-.3-1.93-1.93-1.93-3.34-1.37s-4.11,1.74-11.74,5.45C63.26,30.43,68.79,23,68.79,23a49.9,49.9,0,0,0-7.49,4.59s7.6-9,11.64-12.56c0,0-.08,2.52,0,3.19a146.82,146.82,0,0,0,10.23-12c0-.18-23.79,6-31.24,12.71s-3.89,15.92-3.61,16.59a.87.87,0,0,0,1.11.57l1.24-.26a15.72,15.72,0,0,0,.13,2.89c.22,1.87,1,2.86,2.19,4.38-.17,2.27-.69,5.35-.69,5.78s1,.83,1.59,1S56,50,56,50s.43,1.26.54,1.61,1.45.28,1.45.28a12.45,12.45,0,0,1,.62,1.2c.08.24.95.23,1.21.28a11.43,11.43,0,0,1,2.06,3.45c.5,1.33,2.66,1.47,4.39.78,5.39-2.17,4.61-5.4,10.78-5.78S91,57.55,95.84,62.67c-9.93-7.19-17-7-23-5.34A97.63,97.63,0,0,1,75,71.12c.6,7.41-3,19.27-3,19.27s-1.71,2.37-3.49,5.11c3.49-1.33,12.09-5.63,12.09-5.63L75.6,98.09s11.64-8.59,12.16-9,4.6-21.64,4.6-21.64L97.1,69A142.92,142.92,0,0,1,95.77,85.2c-7.19,7.93-26.5,21.84-27.43,22.38a3.29,3.29,0,0,1-2.65.37,48.88,48.88,0,0,1-5-2.17c-2.15-1-2.26-2-2.08-2.29s1.14-.39,3.71-1a23.53,23.53,0,0,0,5-1.63c.65-.31,1-2,1-2.22A23.83,23.83,0,0,0,66.77,96c-.47-.7-.74-.65-1.06-.52s-4.56,2.82-12.82,1.12S41.7,88.79,40.81,87.79a1.5,1.5,0,0,0-2.23-.37,21.39,21.39,0,0,0-2.26,2c-.7.74-.66,1.26-.37,1.67s2.41,2.34,3.15,4.6-1.52,5.67-1.63,6.26.78,2.48,1.75,5,.22,3.63-.34,5.3,2.23,1.15,2.6.89.88-2.3,1-2.78-1.07-5.89-1.22-6.67,0-2.56,1.41-5a14.63,14.63,0,0,1,8.86,5s-3.23,1.59-3.53,2.37.67,6.6,1,7.23,3.11,1.14,3.11,1.14,5.93,5,7.12,5.67a2.27,2.27,0,0,0,2.66-.07c.71-.41,2.08-1,2.08-1,4,3.49,9.12,3.6,12.34,3a11.65,11.65,0,0,0,1.07-4.52s-3.63.75-5.78-.51c21.05-9,37.8-21.57,38.4-22.39s5.22-21.53,5.22-21.53S126.34,75.3,139.9,78c-16.23,10.23-39.24,29.57-40.8,31.63A7.35,7.35,0,0,0,97.66,114h24.23S133.23,98.71,142,90.09c-4.44,6.45-15.45,29.13-16.56,31.8a8.25,8.25,0,0,0,.3,6.74c.74,1.63,28.31,54.37,29.2,56.66a15.33,15.33,0,0,1,1,6.49C152,196.52,140.38,201,140.38,201a76.13,76.13,0,0,0-8.89,2.74c-2.37,1.11-.82,3.48.52,4s5.33,1.71,8.67,2.74,6,.82,10.15,1,13.27,1.26,18.9.82,5.41-3.93,4.67-6.08S160.69,151.9,159.58,147.16Z"/><path class="cls-2" d="M182,49.62S208.5,41.91,228.88,41l-3.11-3.11s12.6-3.56,21.19-4a139.7,139.7,0,0,0-13.78-6.59s-17.2,5-20.68,6.15l3.26,3.11S207,37.47,182,49.62Z"/><path class="cls-3" d="M102.62,48.61S116.21,35.78,126.56,30l-.25,5.12A193.32,193.32,0,0,1,165.5,19c5.68-12.25,7.62-17.8,7.62-17.8s-22.41,8.46-40.49,20.08l1.14-6.42S115.23,27.79,102.62,48.61Z"/><path class="cls-4" d="M110,23.89S123.15,10.35,134.25,0c-6.57,3.2-19.52,11.28-19.52,11.28l.8-4.64A112.61,112.61,0,0,0,96.41,29.17s9.72-7.8,14-10.22C110.18,20.2,110,23.89,110,23.89Z"/><polygon class="cls-5" points="92.76 17.2 96.62 5.78 85.5 15.64 85.5 12.82 72.9 27.13 81.94 21.64 81.72 25.13 92.76 17.2"/><path class="cls-6" d="M20.76,102.69c.74,2.26-1.52,5.67-1.63,6.26s.78,2.49,1.74,5,.22,3.63-.33,5.3,2.22,1.15,2.59.89.89-2.3,1-2.78-1.08-5.89-1.22-6.67,0-2.56,1.4-5c6.16,1.18,8.86,5,8.86,5s-3.22,1.6-3.52,2.37.67,6.6,1,7.23,3.11,1.15,3.11,1.15,5.93,5,7.11,5.67a2.3,2.3,0,0,0,2.67-.08c.7-.4,2.08-1,2.08-1,4,3.48,9.11,3.59,12.34,3A11.59,11.59,0,0,0,59,124.79c-5.58.68-7.68-1.38-7.68-1.38a10.41,10.41,0,0,0,1-1.5c0-.22-.61-.61-2.47-1.83A35,35,0,0,1,46,117c-.64-.53-.86-.78-1.75-.68a37.46,37.46,0,0,1-7.28-.44,1.38,1.38,0,0,1-1-1.64c0-.41-.31-8.31-.39-9.19a1.4,1.4,0,0,0-1.31-1.49h0c-8.08-1.77-11-7.73-11.85-8.72a1.48,1.48,0,0,0-2.22-.37,18.66,18.66,0,0,0-2.26,2c-.7.74-.67,1.26-.37,1.67S20,100.43,20.76,102.69Z"/><path class="cls-7" d="M139.42,220.83c-6.89,2.82-26.24,6.34-26.24,6.34,3.63-3.52,9.19-14.42,11.57-21.46,0,0-5.56,6.38-9.42,9.19a49.53,49.53,0,0,0,1.77-15.27h0c-.31-13.85-9.85-25-9.85-25s.67,4.15,1.12,9.56c-10.9-17.94-25.87-23.5-25.87-23.5h0c10.63,7.4,18.21,18.59,19.76,31.1,2.76,22.3-14.64,40.37-38.86,40.37s-46.1-18.07-48.87-40.37,14.64-40.37,38.87-40.37a49.17,49.17,0,0,1,10,1.05l2-8.82C53,141.45,42.77,143,28,146.49A61.66,61.66,0,0,1,34.41,140c-22.56,6.85-37,26.66-34,50.05,3.57,28.16,31,51.16,62.1,52.56h0c1,0,32.27,0,40.17,0,11,0,53.51-11.94,53.51-11.94L119,232.84S132.45,227.58,139.42,220.83Z"/><path class="cls-8" d="M85.17,127.59c1.18-.22,30.39-4.13,30.39-4.13l5.11-6.91H84.35L70.49,133.89l-10.56,52.9a5.25,5.25,0,0,0-3.65,4.38c-.32,2.5,1.27,4.54,3.54,4.54a5.09,5.09,0,0,0,4.69-4.54,4.64,4.64,0,0,0-.21-2.06L79.83,135.6s64,55.07,64.71,55.51a2.82,2.82,0,0,0,3-.07c1.18-.67,4.89-2.52,4.67-2.89s-68.11-58.84-68.11-58.84S84,127.82,85.17,127.59Z"/><path class="cls-9" d="M292.51,232.84s13.49-5.26,20.46-12c-6.9,2.82-26.24,6.34-26.24,6.34,3.63-3.52,9.19-14.42,11.56-21.46,0,0-5.56,6.38-9.41,9.19a49.53,49.53,0,0,0,1.77-15.27h0c-.31-13.85-9.84-25-9.84-25s.67,4.15,1.11,9.56c-10.89-17.94-25.86-23.5-25.86-23.5h0c10.63,7.4,18.2,18.59,19.75,31.1,2.77,22.3-14.63,40.37-38.86,40.37s-46.43-18-48.86-40.37c-1.44-13.27,1.26-22.69,6.8-29.07l-2.52-9.92,36.49,33.37a3.53,3.53,0,0,0-.49,2.53,5.26,5.26,0,0,0,5.08,4.16,3.51,3.51,0,0,0,3.67-4.16,5.27,5.27,0,0,0-5.08-4.17l-.33,0-28.08-29.74C210,152.2,219.45,151,219.45,151s-7.17-1.39-9.67-1.33c9.78-2.61,23.4-1.61,23.4-1.61a48.33,48.33,0,0,0-10.45-2.78c12.45,0,21.23,2.41,31.57,5.72-21.29-14.87-46.87-11.07-59-5l-18.78-19.89,3.33-19-10.34,11.67-4.78,28.35,4.56,17.12,5.45-27.57L189.31,150a44.3,44.3,0,0,0-15.38,40c3.57,28.16,31,51.16,62.09,52.56h0c1,0,32.28,0,40.17,0,11,0,53.51-11.94,53.51-11.94Z"/></g></g></svg>