<svg xmlns="http://www.w3.org/2000/svg" xmlns:xlink="http://www.w3.org/1999/xlink" viewBox="0 0 2059.59 1943.79"><defs><style>.cls-1,.cls-2,.cls-3,.cls-4,.cls-5,.cls-6{fill-rule:evenodd;}.cls-1{fill:url(#GradientFill_1);}.cls-2{fill:url(#GradientFill_2);}.cls-3{fill:url(#GradientFill_2-2);}.cls-4{fill:url(#GradientFill_2-3);}.cls-5{fill:url(#GradientFill_2-4);}.cls-6{fill:url(#GradientFill_1-2);}</style><linearGradient id="GradientFill_1" x1="1029.79" y1="1687.4" x2="1029.79" y2="256.58" gradientUnits="userSpaceOnUse"><stop offset="0" stop-color="#a26b2e"/><stop offset="0.1" stop-color="#b6812e"/><stop offset="0.25" stop-color="#e4ac2c"/><stop offset="0.39" stop-color="#fff7b0"/><stop offset="0.45" stop-color="#dda72c"/><stop offset="0.65" stop-color="#b1742a"/><stop offset="0.75" stop-color="#9d5b27"/><stop offset="0.91" stop-color="#f3bb2e"/><stop offset="1" stop-color="#ffdb72"/></linearGradient><linearGradient id="GradientFill_2" x1="802.08" y1="-353.3" x2="802.08" y2="1287.02" gradientUnits="userSpaceOnUse"><stop offset="0" stop-color="#939598"/><stop offset="1" stop-color="#000002"/></linearGradient><linearGradient id="GradientFill_2-2" x1="3149.71" y1="-868.66" x2="796.51" y2="1204.51" xlink:href="#GradientFill_2"/><linearGradient id="GradientFill_2-3" x1="1184.17" y1="-633.33" x2="1184.17" y2="952.04" xlink:href="#GradientFill_2"/><linearGradient id="GradientFill_2-4" x1="420.01" y1="-317.17" x2="420.01" y2="1114.88" xlink:href="#GradientFill_2"/><linearGradient id="GradientFill_1-2" x1="985.29" y1="185.8" x2="985.29" y2="1757.8" xlink:href="#GradientFill_1"/></defs><g id="圖層_2" data-name="圖層 2"><g id="Layer_1" data-name="Layer 1"><path class="cls-1" d="M572.1,512.05v788.59L267.92,1144.06v-632ZM1909.66,982l-101.2-111.64L843,1745.63,76.82,1351.18C227.45,1707,582.48,1943.79,971.89,1943.79c482.83,0,883.37-352.11,959-813.56l.05.08L2059.59,515,1909.66,982ZM650,254.45H954.17v1042.3l-141.1,127.93L650,1340.74V254.45Zm163.08,1263,868.31-787.23-101.2-111.63,272.09-58.79c-103.76-221.29-288.47-397-516-489.12V950.36l-304.18,275.78V1.86Q1002.21,0,971.9,0C435.14,0,0,435.14,0,971.9a979.34,979.34,0,0,0,8.9,131.54Z"/><polygon class="cls-2" points="931.21 277.41 672.95 277.41 672.95 1326.81 809.49 1397.08 931.21 1286.71 931.21 277.41"/><path class="cls-3" d="M2030.14,533.88,1623.76,632.6l74.57,82.24,15.33,16.92-17,15.37-868.3,787.23L816.66,1545l-14.08-7.25L58.16,1154.56q8.54,41,20.61,80.58a921.58,921.58,0,0,0,42.85,113.34L839.43,1718l953.69-864.65L1810,838l15.37,17,72.32,79.78Z"/><path class="cls-4" d="M1182.19,59.14A930.36,930.36,0,0,0,1055,38.43v1136L1313.3,940.32V100.48A920.46,920.46,0,0,0,1182.19,59.14Z"/><polygon class="cls-5" points="549.14 1263.06 549.14 535.01 290.88 535.01 290.88 1130.12 549.14 1263.06"/><path class="cls-6" d="M595.06,512.05v826.16L561.61,1321,257.43,1164.41,245,1158V489.1H595.06v22.95ZM1892.71,997.29l-85.83-94.68-948.52,860-11.76,10.65L832.53,1766,125.78,1402.13c75.11,147.37,187.39,270.77,322.48,360.21,152.38,100.89,333.82,158.49,523.63,158.49,234,0,448.12-84.63,613.51-224.94,168-142.49,285.69-342.38,322.87-569.33l2.31-.49-2.08-.43,39.12-187.05L1931.45,989l-12.11,37.72-26.63-29.38ZM650,231.5H977.13V1306.79l-7.62,6.91-141.1,127.93-11.75,10.65L802.58,1445,639.5,1361.1,627,1354.68V231.5Zm159.5,1258.31,839.6-761.22-85.86-94.7-26.64-29.38,38.75-8.37,243.56-52.63a952.64,952.64,0,0,0-459.68-438.17V960.4l-7.63,6.91-304.18,275.78-38.29,34.72V23.62l-7.65-.27h-.08Q989.21,23,971.9,23c-262,0-499.29,106.22-671,277.94S23,709.85,23,971.9q0,33,2.13,64.29,1.8,26.67,5,52.39Z"/></g></g></svg>