<svg xmlns="http://www.w3.org/2000/svg" xmlns:xlink="http://www.w3.org/1999/xlink" viewBox="0 0 475.68 492"><defs><style>.cls-1{fill:none;}.cls-2{fill:url(#linear-gradient);}.cls-3{fill:url(#linear-gradient-2);}.cls-4{fill:url(#linear-gradient-3);}.cls-5{fill:url(#linear-gradient-4);}.cls-6{fill:url(#linear-gradient-5);}.cls-7{fill:url(#linear-gradient-6);}.cls-8{fill:url(#linear-gradient-7);}</style><linearGradient id="linear-gradient" y1="307.56" x2="475.68" y2="307.56" gradientUnits="userSpaceOnUse"><stop offset="0" stop-color="#0d1322"/><stop offset="0.38" stop-color="#182432"/><stop offset="1" stop-color="#314955"/></linearGradient><linearGradient id="linear-gradient-2" x1="31.75" y1="112.16" x2="368.37" y2="306.5" gradientUnits="userSpaceOnUse"><stop offset="0" stop-color="#566973"/><stop offset="0.16" stop-color="#314955"/><stop offset="0.68" stop-color="#182432"/><stop offset="1" stop-color="#0d1322"/></linearGradient><linearGradient id="linear-gradient-3" x1="86.51" y1="275.16" x2="389.18" y2="275.16" gradientUnits="userSpaceOnUse"><stop offset="0" stop-color="#314955"/><stop offset="0.62" stop-color="#182432"/><stop offset="1" stop-color="#0d1322"/></linearGradient><linearGradient id="linear-gradient-4" x1="86.51" y1="199.37" x2="389.18" y2="199.37" xlink:href="#linear-gradient"/><linearGradient id="linear-gradient-5" x1="172.47" y1="195.66" x2="311.4" y2="195.66" gradientUnits="userSpaceOnUse"><stop offset="0" stop-color="#0d1322"/><stop offset="0.32" stop-color="#182432"/><stop offset="0.84" stop-color="#314955"/><stop offset="1" stop-color="#566973"/></linearGradient><linearGradient id="linear-gradient-6" x1="172.47" y1="260.88" x2="311.4" y2="260.88" xlink:href="#linear-gradient-3"/><linearGradient id="linear-gradient-7" x1="228.48" y1="306.96" x2="289.12" y2="306.96" gradientUnits="userSpaceOnUse"><stop offset="0" stop-color="#566973"/><stop offset="1" stop-color="#314955" stop-opacity="0"/></linearGradient></defs><g id="圖層_2" data-name="圖層 2"><g id="Layer_1" data-name="Layer 1"><path class="cls-1" d="M389.18,245.69A151.36,151.36,0,0,1,98.32,304.38c-2.59,2.13-5.15,4.27-7.71,6.42A161,161,0,1,0,367.08,149.73q-4.71,1.76-9.39,3.56A150.65,150.65,0,0,1,389.18,245.69Z"/><path class="cls-1" d="M237.84,84.73A161,161,0,0,0,90.61,310.8c2.56-2.15,5.12-4.29,7.71-6.42A151.35,151.35,0,0,1,357.69,153.29q4.68-1.8,9.39-3.56A160.71,160.71,0,0,0,237.84,84.73Z"/><path class="cls-2" d="M475.68,167.59l-25.55-44.47Q408,134.45,367.08,149.73A161,161,0,1,1,90.61,310.8q-33.44,28.11-64.07,59.29l25,43.56A90.24,90.24,0,0,1,186.43,492h103A90.12,90.12,0,0,1,424.1,413.62l51.58-89.79a90.06,90.06,0,0,1,0-156.24Z"/><path class="cls-3" d="M90.61,310.8A161,161,0,0,1,367.08,149.73q40.88-15.24,83.05-26.61l-26-45.28a89.69,89.69,0,0,1-44.67,12c-49.7,0-90-40.84-90-89.84h-103c0,49-40.29,89.84-90,89.84a89.6,89.6,0,0,1-44.85-12L0,167.52a89.94,89.94,0,0,1,45.43,78.19A89.93,89.93,0,0,1,0,323.9l26.54,46.18Q57.13,338.94,90.61,310.8Z"/><path class="cls-4" d="M237.84,397A151.32,151.32,0,0,0,357.69,153.29q-12.27,4.72-24.41,9.79A126.23,126.23,0,1,1,118.88,288Q108.49,296,98.32,304.38A151.36,151.36,0,0,0,237.84,397Z"/><path class="cls-5" d="M111.62,245.69a126.23,126.23,0,0,1,221.66-82.61q12.14-5.07,24.41-9.79A151.36,151.36,0,0,0,98.32,304.38Q108.48,296,118.88,288A126.16,126.16,0,0,1,111.62,245.69Z"/><path class="cls-6" d="M233.16,150.47c8.93,18.7-2,40.51-16,56.25-10.32,11.52-22.62,21.94-31.7,34.14a944.45,944.45,0,0,1,98.7-55.57A117.6,117.6,0,0,0,233.16,150.47Z"/><path class="cls-7" d="M183.11,310.62c23.36,32.73,73.88,33.66,103.13,6.88,14.6-13.38,22.42-32.22,24.57-51.16,3.27-28.91-7.26-58.35-26.7-81a944.45,944.45,0,0,0-98.7,55.57A71.46,71.46,0,0,0,177,255.09,57.35,57.35,0,0,0,183.11,310.62Z"/><path class="cls-8" d="M259.69,306.82c12.57,1.33,25.51-7.06,29.42-19.09a38.27,38.27,0,0,1-18.53,33c-9.37,5.5-32.84,9.4-40.58-1.64-3.59-5.11-.36-11.51,4.8-14.09C242.77,301.05,251.61,306,259.69,306.82Z"/></g></g></svg>