<svg xmlns="http://www.w3.org/2000/svg" viewBox="0 0 603.56 603.56"><defs><style>.cls-1{fill:#955ba5;}.cls-2{fill:#f0c418;}.cls-3{fill:#e57e24;}.cls-4{fill:#25b99a;}.cls-5{fill:#3b97d3;}.cls-6{fill:#e64c3b;}</style></defs><g id="圖層_2" data-name="圖層 2"><g id="Layer_1" data-name="Layer 1"><path class="cls-1" d="M406.22,348.8,596.94,238.69C575.27,136.84,502.23,54,406.22,18.57Z"/><path class="cls-2" d="M313.28,415.74,504,525.82a302.12,302.12,0,0,0,95.28-275.17Z"/><path class="cls-3" d="M208.84,589a302.18,302.18,0,0,0,285.92-55.17L208.84,368.72Z"/><path class="cls-4" d="M290.28,187.83,99.61,77.74A301,301,0,0,0,0,301.78a304.61,304.61,0,0,0,4.33,51.14Z"/><path class="cls-5" d="M394.72,234.85V14.61A302.12,302.12,0,0,0,108.8,69.77Z"/><path class="cls-6" d="M197.34,254.76,6.63,364.87C28.29,466.73,101.33,549.58,197.34,585Z"/></g></g></svg>