<svg xmlns="http://www.w3.org/2000/svg" viewBox="0 0 114.94 122.13"><defs><style>.cls-1{fill:#7d9e47;}.cls-2{fill:#5a6b56;}</style></defs><g id="圖層_2" data-name="圖層 2"><g id="OBJECT"><path class="cls-1" d="M63.32,41.16C59.21,46.58,60,54.09,60,54.09s7.44-1.27,11.56-6.68,3.34-12.93,3.34-12.93S67.44,35.75,63.32,41.16Z"/><path class="cls-1" d="M61.22,71.49h0c0-4.44-.81-13.16-6.12-20.15-7.3-9.6-20-11.86-20.56-12l-3.93-.67-.41,4c-.06.54-1.28,13.41,6,23,5.22,6.87,13.23,10,17.55,11.23v23.83H7.46V42l49-29.51L49.61,7.85,0,37.73v70.48H61.22ZM42.14,61.18C39,57,37.94,51.7,37.65,48c3.49,1.27,8.31,3.67,11.5,7.86s4.21,9.49,4.5,13.2C50.17,67.79,45.36,65.41,42.14,61.18Z"/><polygon class="cls-2" points="62.66 0 55.49 4.32 55.47 4.33 107.48 36.65 107.48 114.67 22.53 114.67 22.53 122.13 114.94 122.13 114.94 32.51 62.66 0"/></g></g></svg>