<svg xmlns="http://www.w3.org/2000/svg" viewBox="0 0 291.17 291.53"><defs><style>.cls-1{fill:gray;}.cls-2{fill:#f2f2f2;}.cls-3{fill:#0095c9;}</style></defs><g id="圖層_2" data-name="圖層 2"><g id="Layer_1" data-name="Layer 1"><path class="cls-1" d="M187.06,6c-.95-.28-1.77-.52-3-.86,1,.27,2,.56,3,.86"/><path class="cls-2" d="M179.49,127.09a1.12,1.12,0,0,1-.27-.93c.06-.42.34-1.13.76-1.19.93-.14,1.66,1.43,2.38,2-.86,0-2.17.58-2.87.07"/><path class="cls-3" d="M178.5,15.94c-3.46,6.87-15.43,6.82-17.42,1.39-2.08-5.7,9.13-10.8,15.17-9.46,3.83,1.25,3.35,5.87,2.25,8.07"/><path class="cls-3" d="M142.19,5.7C122.37,10.9,121.7,8.59,122,7.76c1.24-3.85,25.33-7.45,33.35-5.82l.2.08,0,.18c-.47.23-.47.23-4.34,1.19-2.42.59-2.42.59-9,2.31"/><path class="cls-3" d="M181.92,4.67l-.36-.06a47.62,47.62,0,0,0-5.46-.54c-2.58-.17-3.78-.28-4-.51.22-.27,4.46-.4,12,1.59-.41-.11-2.09-.48-2.1-.48"/><path class="cls-3" d="M183.85,5.15a13.91,13.91,0,0,1-2.77.71,5.51,5.51,0,0,1-1.61-.16l-.41-.17h0c-4-.93-13.29.42-18.09,3.26-1.15.65-2.27,1.32-3.41,2a39.92,39.92,0,0,1-4.32,1.86c-8.43,3.08-15.18,1.75-13.87-1.45,1.42-3.49,11.31-6.72,21.16-6.91a15.11,15.11,0,0,1,4,.29l.25.12.12,0h0l.18.06c5.75,1.32,11.51-.8,17.26,0h0l.38.06c.37.07.37.07,1.32.3a1,1,0,0,0-.17,0"/><path class="cls-3" d="M180.43,4.26c-2.16-.47-4-.77-5.11-.95-1.91-.3-3.36-.48-6.09-.81a14,14,0,0,1-2.74-.41c.57-.06,6.78.19,17.53,3.06-.71-.2-3.56-.88-3.59-.89"/><path class="cls-3" d="M130.44,2.87c-19.16,3.31-19.16,3.31-19.81,3,1.65-3.05,30.61-6.65,38.3-5.4a7.76,7.76,0,0,1-2.29.31c-3.77.33-8.45.79-16.2,2.13"/><path class="cls-3" d="M178.93,3.86l-.83-.19c-5.19-1.18-9.07-1.8-12.17-2.25A147.12,147.12,0,0,1,184,5.15c-1-.27-5.06-1.28-5.09-1.29"/><path class="cls-3" d="M180.67,4.29a144.67,144.67,0,0,0-15.79-2.84c-1.16-.15-1.16-.15-2.07-.29H163A133.58,133.58,0,0,0,131.37.74c-2.05.21-2.05.21-7.23.91-2.93.44-5,.83-6.84,1.18-2.65.52-4.14.87-5.68,1.23,1.17-.28,2.33-.55,3.51-.8a145.34,145.34,0,0,1,22.49-3Q143-.07,148.34,0a150.59,150.59,0,0,1,30.3,3.77l.15,0L180,4.1c1.32.33,1.32.33,4.06,1.05-1-.27-2.34-.62-3.35-.86"/><path class="cls-3" d="M142.38,134.26c-6.67,17.36-31,18.29-37.72,1.43-5.82-14.6,6.23-32.37,24.36-28.38,13.19,4.29,17.15,17.07,13.36,26.95"/><path class="cls-3" d="M106.08,24.62C93.74,33.37,81.48,34.68,82.49,29c1.35-7.69,23.28-17.9,31.58-16.29,5.77,2.12-7.85,11.84-8,11.94"/><path class="cls-3" d="M49.53,108c-6,14.83-18.37,20.2-22.85,9.91-5.33-12.29,5.91-36.65,19-34.21,7.77,2.81,7.8,14.62,3.89,24.3"/><path class="cls-3" d="M169.45,42.22c-1.11,2.54-5.82,10.6-19.56,8.05l-.08,0c-.12,0-1.92-.7-2.32-.89l-.17,0c-10.22-3-25.59,1.42-33.92,15.44a.41.41,0,0,1-.05.09l-.2.39a4.77,4.77,0,0,1-.22.43l-.06.2-.05.13c-.1.23-.23.55-.32.78-.37,1-.37,1-2.64,5l-.51.61C99.63,85.06,81,84.82,79.57,72c-1-8.82,8.5-22.31,23.58-22.88l3.4.56,1,.4c.89.37.89.37,1,.44l.15,0c9.89,2.88,25.66-2.12,33.38-14.17l.21-.33.06-.13.06-.1.27-.51a22.31,22.31,0,0,1,2.58-3.61c5.49-5,11.25-6.87,17.12-5.57,8.44,2.74,9.19,11.22,7,16.09"/><path class="cls-3" d="M156.88,83.26a19.14,19.14,0,0,1-15.46,11.37c-3,.41-3,.41-8.59-.64-.21-.07-2.64-1-2.92-1.12l-.2-.06c-18.22-5.35-34.24,9.36-36.84,21.44a55.87,55.87,0,0,1-2.28,7.23c-2,3.55-2.36,4.09-4.44,6.34C74.87,140,58.55,133.57,58.43,117,58.36,107,64.49,97.61,73,94.57c4-1.34,5.27-1.12,9.6-.39.39.15.9.36,1.28.53l.59.21.06.1.73.23c15.65,4.6,32.48-8.77,36.19-20l0-.12c.11-.29.25-.68.34-1,.33-1.07.33-1.07,2.44-5.09,2.27-2.75,9.17-11.13,21.59-8.36,12.36,4,13.89,15.62,11,22.59"/><path class="cls-3" d="M134,32.59a25,25,0,0,1-18.35,8l-3.17-.53c-1-.36-1.83-.76-1.83-.76l-.13,0c-11.31-3.31-28,6-34.86,16.23l-.07.12-.53.83a44.56,44.56,0,0,1-3.43,4.83,38.1,38.1,0,0,1-5.13,5c-9.6,8-19.42,7.17-18.76-1.55.63-8.4,10.62-19.58,20.55-23a14.42,14.42,0,0,1,4.38-.91c.25,0,.26,0,.27,0H73l2.17.34c.22.09.51.23.72.34a5.79,5.79,0,0,1,.67.31l.1,0c7.87,2.34,22.94-3.93,34.32-14.28l.1-.11.11-.1.43-.41a32,32,0,0,1,4.07-3.31l.6-.36C118,22.18,127,16.94,134.71,18.6c6.85,2.31,3.22,9.81-.68,14"/><path class="cls-3" d="M21.28,101.31C16.44,113.89,10.2,121,7.94,116.5c-3.55-7,7.3-38.77,15.4-37.94,4.14,1.92.93,15-2.06,22.75"/><path class="cls-3" d="M86.26,19.59c-14.58,8.3-18,8.15-19.44,8.08h0a5.14,5.14,0,0,1-.42-.38l0,0c-3.47-.49-13,4.84-25.6,17.71l-.09.09-.5.52-.2.22-.16.17-.1.11-.65.7c-.9,1-.9,1-4.08,4.59l-.53.61c-4.1,4.78-6.08,7.39-7.47,9.31A145.6,145.6,0,0,1,51.78,34.37,237.8,237.8,0,0,1,76.66,18.49l.36-.2.18-.1.15-.08.69-.39c1.28-.71,1.28-.71,5.47-2.83,8.58-4,15.12-5.82,17.16-5.55l.33.31c-.78,1.48-5.74,4.83-14.74,9.94"/><path class="cls-3" d="M47.48,53.5c-1.81,2.09-8.11,9.12-13.56,11.89-1.36.68-1.36.68-3.49.75l-.66-.51-.05,0c-5.8-.76-14.65,14.91-19.09,26.27C10,93.4,10,93.4,8,99c-.34,1-1.25,3.58-2.3,6.92-.52,1.69-1,3.29-1.66,5.92.34-1.45.71-2.9,1.11-4.34a146.59,146.59,0,0,1,8-22.31q2.13-4.68,4.56-9.15c3.52-5.75,12.13-16.32,18.41-24l.09-.1L37,51c.91-1.11.91-1.11,4.15-4.62C47.82,39.75,53.49,36,56.28,36.3c3.52,1.66-5.16,13-8.8,17.2"/><path class="cls-3" d="M109.81,265.6c-2.57,8.4-12.6,8.7-18.55-2.15-4.35-7.93-1.31-15.77,8.45-13.61,8.5,2.75,11.81,10.17,10.1,15.76"/><path class="cls-3" d="M39.87,160.3c-1.68,13.5-10.08,19-16.65,10.85-9.68-12-5.73-37.59,5.63-36.54a11.58,11.58,0,0,1,1.15.21c8.6,3.12,11,16.78,9.87,25.48"/><path class="cls-3" d="M61.47,252c6.6,10.41,4.28,9.8,3.51,9.61-6.82-1.78-27-24.09-22-27.2a2.61,2.61,0,0,1,1.7-.07c6.62,2.32,14.48,14.11,16.74,17.66"/><path class="cls-3" d="M129.41,183.18c-1.94,6.2-7.56,16.15-23.38,13.17l-.11,0c-.14,0-2.33-.85-2.82-1.08l-.21-.06c-10.54-3.09-25.66.74-26.29,18.9v.1c0,.16,0,.36,0,.51s0,.31,0,.36l0,.2,0,.14c0,.25,0,.57.09.81a29.74,29.74,0,0,1,.08,5l-.12.6C74.92,233.67,64.06,234,56,222.49c-6.81-9.7-8.39-24.82,3.36-25.81l3.35.51,1.13.46,1.19.48.17.05c12,3.54,24.34-6.46,26.4-21.39l0-.17v-.38c0-.24,0-.56.06-.8.09-1.57.09-1.57,1.19-6,4.54-9.48,11.88-13.18,21.81-11h0c11.1,3.62,17,13.57,14.71,24.76h0"/><path class="cls-3" d="M117.39,231.17a14.38,14.38,0,0,1-11.24,9.42c-2.08.34-2.08.34-6.2-.44,0,0-1.83-.66-2.25-.85l-.15,0c-12.66-3.72-19.14,5.57-15.37,15.5.95,2.75.95,2.75,1.41,4.33a15.34,15.34,0,0,1,.36,3.57c-.25,8.32-10.09-.52-13.52-4.28-6.18-6.76-8.75-13.89-6-16.57,1.41-1.17,2.26-1,4.76-.58l.92.36.41.14.07.08.5.15c10.87,3.2,16.43-9.64,15.84-17.7v-.12a7.66,7.66,0,0,0-.06-.94c-.11-1.27-.11-1.27.26-5,2.67-8.12,8.44-11.25,17.15-9.33,11.74,3.81,15.87,14.34,13.09,22.32"/><path class="cls-3" d="M79.36,171.57C78.28,176.18,75,184,65.11,184.83l-3.53-.57c-.08,0-2-.78-2.38-1l-.17,0c-12.32-3.63-20.44,7.29-16.7,22.48l0,.14c.08.28.18.67.26.95.37,1.3.37,1.3,1.21,5.4a24.8,24.8,0,0,1,.25,5.36c-.37,7.15-4.59,7.94-10.26,1.92-8.3-8.83-13.11-24.81-9-30A3.54,3.54,0,0,1,27.14,188c.3-.09.32-.09.33-.08l0,0,2,.28.9.41c.25.1.59.24.83.36l.11,0C41,191.82,48,178.83,48.57,164.92v-.39c0-.22,0-.52,0-.73,0-1.64,0-1.64.64-6.32l.24-.74c.69-2.36,4.76-14,17.06-11.43,12.13,4.11,14.82,17.83,12.85,26.26"/><path class="cls-3" d="M47.47,248.64c9,10.49,9,10.49,9.15,10.88l-.2.1c-7.13-2.89-29.41-27.44-25.91-28.54a1,1,0,0,1,.3,0c2.58,1.09,7.28,6.59,16.66,17.55"/><path class="cls-3" d="M12.69,151.43c-.41,17.5-4.19,17.91-5.44,18h0a4.89,4.89,0,0,1-.85-.55l-.06,0c-4-.46-2.8,11.06,2.72,26.8a.49.49,0,0,0,0,.11l.17.45.19.51.07.21.06.15c.1.27.24.62.34.88.39,1,.39,1,2.29,5.64l.31.72c1.83,4.26,3.26,7.29,4.94,10.45A146.34,146.34,0,0,1,4.31,180.9c-.44-2-1.57-8.63-2.45-28.52a1.09,1.09,0,0,0,0-.18v-.39c0-.24,0-.57,0-.82-.07-1.55-.07-1.55,0-6.35.59-10.07,2.61-15.7,5.55-15.43h0c3.23,1.47,5.34,10.19,5.37,22.22h0"/><path class="cls-3" d="M21.82,205.17c1.49,4.43,3.2,10.34,2.93,13.28a1.79,1.79,0,0,1-.36.88l-.79,0a7.25,7.25,0,0,1-.78-.45h-.05l-.57-.07c-1.53,1.44,4.63,12.27,14.58,23.56,1.23,1.38,1.23,1.38,4.9,5.28,2.3,2.38,4.08,4.06,4.84,4.78,1.33,1.25,2.4,2.24,4.24,3.84q-1.83-1.58-3.6-3.21a144.93,144.93,0,0,1-15.31-16.44Q29,233,26.32,229.25c-1.57-2.3-5.94-9.34-12.77-25l-.06-.13-.45-1c-.58-1.33-.58-1.33-2.23-5.7-3-9-3.32-14.44-.89-14.23,4.17,1.83,9.44,14.68,11.9,22"/><path class="cls-3" d="M.29,150.06c.07,3.24.28,9.37.87,14.1q-.64-5.1-.94-10.26a144.47,144.47,0,0,1,.49-22.37,182.58,182.58,0,0,0-.42,18.53"/><path class="cls-3" d="M89.52,278.8c3.38,2,3.38,2,11.24,5.46-15-4.94-28-13.52-29.11-16.1l.22-.2.32.05c1.74.6,4.1,2.13,8.72,5.24,3,2.05,5.68,3.82,8.61,5.55"/><path class="cls-3" d="M107,283.68s-.32,2.16-1,2.05h0l-.25-.09h0l-.18,0,0,.06a8.09,8.09,0,0,0,1.94.72,15.21,15.21,0,0,1-7.11-4.15l0-.05-.06-.05,0-.05-.23-.22a14.12,14.12,0,0,1-1.57-1.77c-2.23-3.43-.16-4.53,2-4.19.19,0,.44.1.63.14,4.39,1.41,6.37,5,6,7.64"/><path class="cls-3" d="M97.49,281.08a24.23,24.23,0,0,0,5.76,3.86l0,0-.33-.12h0a38,38,0,0,0,4.63,1.53,58.58,58.58,0,0,1-15-6.32l-.12-.07-.11-.06-.44-.26c-.92-.55-.92-.55-3.6-2.36l-.4-.29c-4.09-3.07-5.34-5.32-4-5.5a3.34,3.34,0,0,1,.89.11c2.63.87,2.63.87,12.66,9.45"/><path class="cls-3" d="M84.6,277.57A118.68,118.68,0,0,0,99.79,284h0l-.37-.12h0c3,1.05,6.45,2,8.11,2.48a141.15,141.15,0,0,1-23.28-8.55l-.16-.08-.19-.09-.17-.07-.74-.36c-1.34-.65-1.34-.65-5.65-2.88-7.4-4-11.59-7.13-12.46-8a.54.54,0,0,0,0-.11A41.22,41.22,0,0,1,69.79,269c4,2.49,9,5.6,14.81,8.53"/><path class="cls-3" d="M82.22,276.92a142.64,142.64,0,0,0,13.41,5.68q-5.32-2-10.42-4.27c-5.84-2.94-13.5-7.11-19.09-10.49a147.91,147.91,0,0,0,16.1,9.08"/><path class="cls-3" d="M235.11,31c5.8,4.64,10.8,9.65,11.16,11.16-.33.12-.62.22-3.3-1.87L242,39.5c-5.33-4.28-10.34-8.94-15.68-13.2-3.41-2.72-7.1-5.06-10.5-7.8,0,0,0-.07,0-.1A111.32,111.32,0,0,1,235.11,31"/><path class="cls-3" d="M200.53,10.7A146,146,0,0,0,184,5.15a146.74,146.74,0,0,1,16.51,5.55"/><path class="cls-3" d="M246.23,40.16A153.54,153.54,0,0,0,221.8,21.4a145.06,145.06,0,0,1,24.43,18.76"/><path class="cls-3" d="M188.94,6.58c2.29.71,4.38,1.42,6.58,2.22,5,1.83,7.91,3.22,8.38,3.46a13,13,0,0,1-1.67-.66A137.93,137.93,0,0,0,184,5.15h0c1,.27,4.89,1.42,4.92,1.43"/><path class="cls-3" d="M229.11,29.71c6.39,5.81,8.67,10.2,6.37,10.09-4.77-.23-24.25-21.18-25-22.39,0-.06.06-.13.08-.18l.23,0c2.23.77,11.15,5.93,18.32,12.45"/><path class="cls-3" d="M198.07,20.9c1.86,6-3.29,8.31-8.63,5.77-8.39-4-8-13.83-2.65-15.56a4,4,0,0,1,2.17,0c3.52,1.14,7.87,5.81,9.11,9.81"/><path class="cls-3" d="M187.19,6.11l.51.17c4.63,1.6,7.24,3.16,7.28,3.51-.36.07-1.48-.46-3.71-1.59a35.74,35.74,0,0,0-7.25-3c.64.17,3.15.95,3.17,1"/><path class="cls-3" d="M187.19,6.06a83.6,83.6,0,0,1,12.91,5,5.27,5.27,0,0,1,.62.35l-.06.07-.54-.2h0l-.24,0a5,5,0,0,0,1,.84A77.19,77.19,0,0,1,212.47,22.3l.06.06.61.63c1.26,1.3,1.26,1.3,3.36,3.79a16.33,16.33,0,0,1,2.1,3.61c1.49,3.78-.83,4.63-3.78,3.5C206.3,30.64,199.77,17.42,200,15c.09-.53.09-.53,1.21-.46l.41.16.18.06.06,0,.2.06c.83.18.88.2,1.15,0,0-1.4-6-5.43-15.36-8.55l-.1,0L186.88,6C186,5.7,186,5.7,184,5.15c1,.26,2.23.62,3.17.91"/><path class="cls-3" d="M185.54,5.65a10,10,0,0,1,1.78.92c1,.67,1.08,1.15.67,1.25s-2.55-.52-3.74-2.42c-.13-.21-.15-.22-.23-.25.31.08,1.51.5,1.52.5"/><path class="cls-3" d="M268.45,68.79c5.41,9.06,7,15.21,4.77,14.66-1.08-.26-3.9-2.38-10.76-13.58-.12-.18-11.24-18.82-9.41-19.32a.87.87,0,0,1,.28,0c2.61,1.1,9.78,9.3,15.12,18.23"/><path class="cls-3" d="M287,172.61c-2.7,12.84-8,20.54-10.93,15.84-4.32-7,1.42-40.42,9-39.61,3.95,1.77,4.07,13.48,1.91,23.77"/><path class="cls-3" d="M290.88,132.1a215.9,215.9,0,0,0-6.08-30,145.26,145.26,0,0,1,6.08,30"/><path class="cls-3" d="M286.37,184c-.3,1.09-.6,2.17-.92,3.25a233.29,233.29,0,0,0,5.72-31.6,146.31,146.31,0,0,1-4.8,28.35"/><path class="cls-3" d="M278.6,85.84c2.95,7.8,5.9,20.38,7.16,25.76l0,.12.24,1,0,.15.24,1c.35,1.49.35,1.49,1.15,6.07a51.59,51.59,0,0,1,.54,6.54c.11,6.82-1.62,10-4.21,7.77-5.5-4.78-10.11-28.72-7.92-36.13.38-1.22.54-1.35,1-1.75.12-.13.13-.13.14-.13h1l.47.27a2,2,0,0,1,.4.24l.06,0c3.35.41,1.06-9.48-7.7-24.87l-.06-.1c-.17-.3-.35-.6-.53-.9l-.1-.17-.47-.78c-.8-1.3-.8-1.3-3.4-5.34l-.41-.64c-1.54-2.31-3.65-5.39-6.3-8.81A146.29,146.29,0,0,1,278.6,85.84"/><path class="cls-3" d="M269.91,169c-4,15.31-15.66,21-21.24,10.34-6.61-12.65,1.2-38,14-35.62,8.68,3.13,9.46,16.67,7.25,25.28"/><path class="cls-3" d="M204,51.25c-.35,11.7-14.2,13-22.11,4.75-9.22-9.68-2.81-23.28,7.64-22.58a16.42,16.42,0,0,1,2.19.37c8.64,2.8,12.44,12.07,12.28,17.46"/><path class="cls-3" d="M192.32,146.87a19.77,19.77,0,0,1-37.12,1.58c-6.46-14.74,5-32.61,23.53-28.52,13.36,4.33,17,17.11,13.59,26.94"/><path class="cls-3" d="M257.06,66.06c1.11,2.29,6.25,13.71-1.63,12.92h-.05c-.31-.13-1.4-.59-1.58-.7l-.11,0c-8.51-2.51-12.76,9.64-11.82,22.34,0,0,0,.11,0,.16l.05.23v.14c0,.27.08.64.12.91.19,1.38.19,1.38.11,5.73l-.13.72c-2.37,14.21-16.44,14.44-24.19,3.89-8.19-11.16-5.79-29.26,7.13-30.12l3.23.52c.36.13.72.28,1.08.42l1.11.46.15,0c10.1,3,17.24-5.31,11.29-20.44,0,0,0-.09-.05-.14l-.08-.17-.06-.14c-.09-.19-.2-.46-.29-.65-.58-1.27-.58-1.27-2-4.84-1.23-4.26-3.08-10.69,1.09-9.93,5.35,1.88,13,11.36,16.56,18.68"/><path class="cls-3" d="M272.09,114.6c.7,8-1.74,13-4.46,14.37-1.25.71-1.25.71-4.63.43,0,0-1.68-.72-1.85-.83l-.13,0c-8.08-2.4-18.48,5-22.7,23.81a.51.51,0,0,1,0,.13c-.07.38-.15.89-.21,1.28a45.07,45.07,0,0,1-1.61,7.41,23.53,23.53,0,0,1-3.82,6.51c-10,12.51-26.6,6.08-28.12-10.93-.9-10.09,4.41-20,12.36-23,3.75-1.4,5-1.18,9.37-.46.39.15.92.37,1.31.54l.59.21.07.1.72.23c14.4,4.25,24-9.53,22.43-23.77l0-.13c0-.34-.08-.78-.12-1.11a47.52,47.52,0,0,1-.35-5.85c.36-4,1.2-13.31,8.23-12,7,2.49,12.16,13.94,13,23.12"/><path class="cls-3" d="M234.22,59.84c.86,3.17,2.07,10.63-5.45,11.56l-2.89-.46c-.87-.32-2.09-.83-2.1-.83l-.14,0c-12.86-3.78-21.6,9.42-21.74,19.8V90c0,.18,0,.19,0,.2,0,.23,0,.54,0,.77,0,1.44,0,1.44-.74,5.56a16.16,16.16,0,0,1-3.11,5.55c-9.67,11.73-30.6,3.1-31.54-13a16.77,16.77,0,0,1,12.22-17.31c2-.53,2-.53,5.71-.62a.2.2,0,0,1,.11,0h.09l3.43.68c.39.13.39.13,1.37.51s.91.33,1.23.47l.18.05c13.24,3.89,23.47-4.59,21.44-17.78l0-.15c0-.21-.09-.49-.13-.69a25.9,25.9,0,0,1-.61-4.59l0-.51c.07-2.76.91-9,7.2-7.7,6.88,2.29,13.57,11.36,15.5,18.39"/><path class="cls-3" d="M267.74,222.29c-7,11-15.05,17-15.89,11.85-1.29-7.82,14.3-33.87,21.69-33.07,3.67,1.72-.15,12.35-5.8,21.22"/><path class="cls-3" d="M185,285.57c-9,2.61-18.26,3.92-19.32,3.36.86-1.2,32.46-12.35,36.52-11.79,1.79.87-4.72,4.21-11.68,6.66-1.56.56-3.83,1.28-5.52,1.77"/><path class="cls-3" d="M222.28,269.78a202.8,202.8,0,0,0,24.07-18.55,146.74,146.74,0,0,1-24.07,18.55"/><path class="cls-3" d="M172.7,289a165.54,165.54,0,0,0,29.19-8.76A145.8,145.8,0,0,1,172.7,289"/><path class="cls-3" d="M258.26,238.44c-1.05,1.09-7,7.15-21.36,19.22l-.1.08-.8.67-.11.09-.8.67c-1.14.94-1.14.94-4.86,3.75-1.73,1.2-3.09,2.15-5.76,3.72-4.2,2.46-9.58,5.1-11.35,3.76,0-4.27,16.91-18.54,25.73-22.69a13.08,13.08,0,0,1,3.4-1.22l.29-.07h.05l1.33.09.32.24.27.22.05,0c3.81.54,12.33-5.86,22.78-21.37l.07-.1.58-.9.1-.16c.17-.27.34-.53.5-.8.79-1.28.79-1.28,3.37-5.58l.4-.69c1.73-3,3.73-6.48,5.5-10a144.49,144.49,0,0,1-19.6,31.11"/><path class="cls-3" d="M175.46,283.45c-9.09,3.07-21.13,4.46-20.46,2.37.74-2.32,22.68-14.06,31.85-12.28,3.91,1.44-.23,5.2-6.49,8-1.32.6-3.33,1.38-4.9,1.9"/><path class="cls-3" d="M177.23,197.66c-7.75,16-30.88,15.48-36.4-.87-4.6-13.61,7.5-28.87,24.89-25,14.32,4.68,15.35,18,11.51,25.92"/><path class="cls-3" d="M135.75,272.18c-7.08,6.74-20.59,7.25-20.34-3.53.15-6.71,7.39-12.64,16.85-10.53,8.41,2.72,8.36,9.41,3.49,14.06"/><path class="cls-3" d="M252.22,216.59c-3.42,5.73-10.66,15.14-20.72,13.89h-.05c-.2-.09-.9-.38-1.6-.75l-.12,0c-9-2.66-24.37,5.21-34.28,17.55l-.1.12-.1.16-.08.11-.48.66c-.58.82-.58.82-3.61,4l-.59.48c-11.29,9.41-27.27,9.34-25.6-3.17,1-7.35,9.65-18,22.76-18l3.64.6,1.05.43,1.07.45.15.05c11.61,3.43,27.83-5.52,34.7-19.14l.08-.16.07-.18.07-.16c.1-.22.23-.51.32-.73a43.12,43.12,0,0,1,2.86-5.56c2.41-3.34,9.76-13.51,18.8-11.83h0c6.45,2.36,7.15,10.89,1.75,21.24h0"/><path class="cls-3" d="M218,258.55c-3.94,3.16-10.3,6.93-16.32,8-2.06.37-2.06.37-4.73,0,0,0-1.07-.49-1.15-.55l-.09,0c-7.37-1.59-19.23,2.08-32.54,10.06l-.08.05-.78.49a43.48,43.48,0,0,1-4.73,2.66,40.9,40.9,0,0,1-5.49,2c-5,1.44-17,3.52-12.53-4,2.49-4.16,9-9.09,16.46-10.48,3.25-.56,3.87-.46,7.29.11.23.09.54.22.77.33l.37.13v0l.46.15c9.66,2.81,26.69-4.69,33.87-12.8l.08-.1c.2-.21.46-.51.66-.74a52.86,52.86,0,0,1,3.88-4c3-2.48,12.11-10.05,20.22-8.49,6.51,2.38,2.35,10.83-5.62,17.23"/><path class="cls-3" d="M219.28,209.63a23,23,0,0,1-19.22,11.91l-3.68-.61c-.45-.17-2.1-.83-2.31-1l-.17,0c-12.6-3.7-29.45,4.59-35.36,17.4l0,.12a1.24,1.24,0,0,1-.08.16c-.08.19-.19.44-.26.63-.37.95-.37.95-2.49,4.4a20.89,20.89,0,0,1-4.47,4.07c-13.53,9.37-27.72-.62-25.26-13.58a16.46,16.46,0,0,1,12.72-12.68c2.4-.55,2.4-.55,6.2-.56a.53.53,0,0,1,.21,0h.09l3.67.73c.34.12.34.12,1.41.55a10.6,10.6,0,0,1,1.27.48l.19.06c14.11,4.11,30.63-4.56,36.06-18.93l0-.19c.09-.25.21-.59.28-.85.43-1.54.43-1.54,2.44-5.83l.47-.68c1.4-2.16,9-12.84,21.6-10.19,12,4.08,11.17,16.83,6.69,24.58"/><path class="cls-3" d="M134.35,291a141.05,141.05,0,0,1-18.42-2.62,120.19,120.19,0,0,0,19.94,2.18c6.34.19,12.67-1,19-.05-.89.65-9.95,1.29-20.54.49"/><path class="cls-3" d="M115,288.2c-3-.65-4.15-.94-7.47-1.82h0a147.17,147.17,0,0,0,23.61,4.39h.13l1.08.1.2,0,1,.09c1.53.12,1.53.12,6.55.4l.8,0c3.92.13,7.53.12,11.37,0A145.12,145.12,0,0,1,115,288.2"/><path class="cls-3" d="M116.54,286.15a18.48,18.48,0,0,1-7.5.36c-.37-.14-.09-2,.58-3.09,1.22-2,4.45-3.81,8.66-2.87,4,1.32,2.79,3.67.34,4.86a12,12,0,0,1-2.08.74"/><path class="cls-3" d="M130.68,290.1A111,111,0,0,1,114,287.89h0l.15,0h0c-2.2-.52-4.43-1-6.62-1.53a75.89,75.89,0,0,0,17.33,2.54H126c1,0,1,0,4.62-.09,15.45-.51,15.45-.51,16.06-.39l.3.12c0,.08.06.2.09.28-1.3,1-8,1.71-16.41,1.24"/><path class="cls-3" d="M124.51,288.43a64.13,64.13,0,0,1-12.28-1l-.46-.1,0,0h0c-1.41-.34-2.85-.53-4.26-.89a26.89,26.89,0,0,0,10.28.55l.07,0,.4-.07c.54-.1.54-.1,2.85-.59l.39-.09c4.46-1,9.09-1.89,12.45-1.16,1.92.66,1.06,1.41,0,1.92-1.39.67-4.6,1.42-9.44,1.51"/></g></g></svg>