<svg xmlns="http://www.w3.org/2000/svg" viewBox="0 0 388.35 388.35"><defs><style>.cls-1{fill:#194582;}.cls-2{fill:#1f76ba;}</style></defs><g id="圖層_2" data-name="圖層 2"><g id="Layer_3" data-name="Layer 3"><polygon class="cls-1" points="344.56 17.48 344.56 17.48 344.56 17.48 344.56 17.48"/><path class="cls-1" d="M109.15,206.73c7.83-10.61,36-30.57,36-30.57-84.07,26-97.93,129.39-97.93,129.39s-4.33-33.91-3.61-49.23c.77-16.44,4-32.85,10.9-47.85,18.76-40.54,61.17-64.62,103.14-79.92s86.7-24.85,124.47-48.7a305.49,305.49,0,0,0,30.81-22.91c3.27-2.69,6.55-5.46,9.71-8.36A193.41,193.41,0,0,0,194.17,0C86.93,0,0,86.94,0,194.17a193.62,193.62,0,0,0,61.74,142C67.34,289.19,80.53,245.5,109.15,206.73Z"/><path class="cls-2" d="M353,82.39c10.31-33.44-8.4-64.9-8.41-64.91,1.57,32.26-3.24,66.07-21.51,92.71-24.76,36.1-68.84,52.5-109.52,68.68-17.2,6.84-34.93,14.51-48.86,26.32a76.5,76.5,0,0,1,19.79-10.38c13-4.66,26.66-6.72,40.07-9.85a254,254,0,0,0,72.13-29.1c11.81-7,23.39-15.4,30.38-27.25A89.19,89.19,0,0,1,289,197.42c-25.29,17.34-57.42,20.21-86.56,29.75A192.22,192.22,0,0,0,166,243.47a82.66,82.66,0,0,1,16.67-4.3c36.61-6.33,76.07-7.18,106.87-28-20.84,30.77-59,44-95,53.48S120.2,283,93.75,309.05c-15,14.83-24.82,34-34.35,52.88H96.35a193.25,193.25,0,0,0,97.82,26.42c107.24,0,194.18-86.94,194.18-194.18A193.31,193.31,0,0,0,353,82.39Z"/></g></g></svg>